<?xml version="1.0" encoding="UTF-8"?>
<svg width="12" height="16" viewBox="0 0 12 16" xmlns="http://www.w3.org/2000/svg" xmlns:xlink="http://www.w3.org/1999/xlink">
    <path d="M7.71428571,8.63481718 C10.7525435,8.63481718 13.2071127,11.2853926 13.3171147,14.5781586 L13.320963,14.8089031 L13.320963,15.3089031 L12.320963,15.3089031 L12.320963,14.8089031 C12.320963,11.9402752 10.2460508,9.63481718 7.71428571,9.63481718 C5.25094673,9.63481718 3.22009952,11.8173399 3.11212337,14.5775802 L3.10760839,14.8089031 L3.10760839,15.3089031 L2.10760839,15.3089031 L2.10760839,14.8089031 C2.10760839,11.4101087 4.60537077,8.63481718 7.71428571,8.63481718 Z" id="Stroke-2"></path>
    <path d="M7.71428571,0.691096901 C5.87128778,0.691096901 4.37724276,2.18514192 4.37724276,4.02813986 C4.37724276,5.87113779 5.87128778,7.36518282 7.71428571,7.36518282 C9.55728365,7.36518282 11.0513287,5.87113779 11.0513287,4.02813986 C11.0513287,2.18514192 9.55728365,0.691096901 7.71428571,0.691096901 Z M7.71428571,1.6910969 C9.0049989,1.6910969 10.0513287,2.73742667 10.0513287,4.02813986 C10.0513287,5.31885304 9.0049989,6.36518282 7.71428571,6.36518282 C6.42357253,6.36518282 5.37724276,5.31885304 5.37724276,4.02813986 C5.37724276,2.73742667 6.42357253,1.6910969 7.71428571,1.6910969 Z" id="Stroke-1"></path>
</svg>
