<?xml version="1.0" encoding="UTF-8"?>
<svg width="16px" height="21px" viewBox="0 0 16 21" version="1.1" xmlns="http://www.w3.org/2000/svg" xmlns:xlink="http://www.w3.org/1999/xlink">
    <title>917EA7B6-D24E-47F0-BC35-16C10AAB483D</title>
    <g id="13.-Account" stroke="none" stroke-width="1" fill="none" fill-rule="evenodd">
        <g id="M_13_My-Account_01-Account-Dashboard" transform="translate(-35.000000, -375.000000)" fill="#363139" fill-rule="nonzero">
            <g id="Section" transform="translate(20.000000, 207.000000)">
                <g id="Input-Field/Active-" transform="translate(0.000000, 27.000000)">
                    <g id="Group" transform="translate(15.000000, 64.000000)">
                        <g id="Combined-Shape" transform="translate(0.000000, 77.148478)">
                            <path d="M15.5246425,0.901521977 L15.6108866,0.908639534 C15.805581,0.941283474 15.95,1.08218229 15.95,1.24735112 L15.95,1.24735112 L15.95,19.4556928 L15.9414334,19.5247441 C15.9020965,19.6812571 15.7318041,19.801522 15.5246908,19.801522 L15.5246908,19.801522 L2.36467042,19.801522 L2.19939684,19.7966815 C0.998393649,19.7260923 0.05,18.8923568 0.05,17.8822257 L0.05,17.8822257 L0.05,2.8206976 L0.0558129901,2.68411358 C0.140590973,1.6913203 1.14211301,0.901521977 2.36457387,0.901521977 L2.36457387,0.901521977 L15.5246425,0.901521977 Z M15.0493334,16.654628 L2.36457387,16.654628 L2.22406781,16.6602355 C1.48394912,16.7195953 0.900666639,17.2429537 0.900666639,17.8821453 C0.900666639,18.5613674 1.55918726,19.1098235 2.36467042,19.1098235 L2.36467042,19.1098235 L15.0493334,19.1098235 L15.0993334,16.704628 L15.0493334,16.654628 Z M15.0493334,1.59318027 L2.36457387,1.59318027 L2.22407038,1.59878801 C1.4839637,1.65815054 0.900666639,2.18153103 0.900666639,2.8206976 L0.900666639,2.8206976 L0.900666639,16.3046983 L0.95,16.283522 L0.950666639,16.3046983 C0.991291628,16.2793834 1.03292285,16.2551289 1.07550043,16.2319847 L1.10446811,16.221083 C1.5132964,16.0630969 1.93002743,15.9629295 2.36457387,15.9629295 L2.36457387,15.9629295 L15.0493334,15.9629295 L15.0993334,1.64318027 L15.0493334,1.59318027 Z"></path>
                            <path d="M13.2116493,2.90152198 L13.303491,2.9087549 C13.5107824,2.94192207 13.6642857,3.08501643 13.6642857,3.2518269 L13.6642857,3.2518269 L13.6642857,6.45121705 L13.6551796,6.5210082 C13.6133624,6.6792904 13.4323026,6.80152198 13.2116493,6.80152198 L13.2116493,6.80152198 L2.78835069,6.80152198 L2.69650171,6.79428997 C2.48919801,6.76112696 2.33571429,6.61805039 2.33571429,6.45125771 L2.33571429,6.45125771 L2.33571429,3.2518269 L2.34482038,3.18203575 C2.38663762,3.02375355 2.56769738,2.90152198 2.78835069,2.90152198 L2.78835069,2.90152198 L13.2116493,2.90152198 Z M12.7089619,3.60213183 L3.29098709,3.60213183 L3.24098709,6.05091213 L12.7089619,6.10091213 L12.7589619,3.65213183 L12.7089619,3.60213183 Z"></path>
                        </g>
                    </g>
                </g>
            </g>
        </g>
    </g>
</svg>