<?xml version="1.0" encoding="UTF-8"?>
<svg width="51px" height="22px" viewBox="0 0 51 22" version="1.1" xmlns="http://www.w3.org/2000/svg" xmlns:xlink="http://www.w3.org/1999/xlink">
    <title>561BA3B9-15DB-4993-A7CC-D4FAA9F6F4C6</title>
    <g id="Page-1" stroke="none" stroke-width="1" fill="none" fill-rule="evenodd">
        <g id="LPB-Icons" transform="translate(-962.000000, -688.000000)" fill="#363139" fill-rule="nonzero">
            <g id="Group-7-Copy-2" transform="translate(962.000000, 617.000000)">
                <g id="Group-6" transform="translate(0.000000, 65.000000)">
                    <g id="Apple-Pay" transform="translate(0.000000, 6.000000)">
                        <g id="Group">
                            <path d="M9.62446038,2.75644642 C10.2127487,2.02062528 10.6119574,1.03263434 10.5066687,0.023025283 C9.64549736,0.0658464151 8.59460302,0.591169057 7.98618679,1.32756717 C7.43989358,1.95817849 6.95637925,2.98753774 7.08243094,3.95482377 C8.04914,4.03867698 9.0149566,3.47162075 9.62446038,2.75644642" id="Path"></path>
                            <path d="M10.4956853,4.14368755 C9.09179057,4.06006264 7.89813698,4.94046528 7.22770566,4.94046528 C6.55690491,4.94046528 5.53025623,4.18582792 4.41984981,4.20616755 C2.97458679,4.22739547 1.63354981,5.04455849 0.900140377,6.34423132 C-0.608358113,8.94421623 0.502048302,12.8009034 1.9689834,14.9184449 C2.68136,15.96606 3.53989547,17.1195615 4.67114792,17.0781268 C5.73999094,17.0361857 6.15893321,16.3860317 7.45815774,16.3860317 C8.75642755,16.3860317 9.13380642,17.0781268 10.2652415,17.0571604 C11.4385679,17.0361815 12.172106,16.0090223 12.8844743,14.960386 C13.7017038,13.7661596 14.0362491,12.6130358 14.0572902,12.549734 C14.0362449,12.5287675 11.7947853,11.6688872 11.7740015,9.09051208 C11.75284,6.93160226 13.5337981,5.90470453 13.6176181,5.84102075 C12.6118943,4.35355094 11.0404717,4.18582792 10.4956853,4.14368755" id="Path"></path>
                        </g>
                        <path d="M22.7197113,1.22195472 C25.7710532,1.22195472 27.8958132,3.32527509 27.8958132,6.38754642 C27.8958132,9.46075132 25.7273313,11.574997 22.643197,11.574997 L19.2647774,11.574997 L19.2647774,16.9476377 L16.8238691,16.9476377 L16.8238691,1.22195472 L22.7197113,1.22195472 L22.7197113,1.22195472 Z M19.2647732,9.52612453 L22.0655475,9.52612453 C24.1907268,9.52612453 25.4002494,8.38197509 25.4002494,6.39847585 C25.4002494,4.4151883 24.1907268,3.28176075 22.076477,3.28176075 L19.2647732,3.28176075 L19.2647732,9.52612453 L19.2647732,9.52612453 Z" id="Shape"></path>
                        <path d="M28.5335725,13.6892468 C28.5335725,11.6838845 30.070177,10.452503 32.7948604,10.2998936 L35.9332268,10.1147034 L35.9332268,9.23205094 C35.9332268,7.9569434 35.0722257,7.19410792 33.6339985,7.19410792 C32.2714472,7.19410792 31.4213755,7.8478483 31.214534,8.8723883 L28.9913966,8.8723883 C29.1221472,6.80165283 30.8874521,5.27598189 33.721023,5.27598189 C36.4999385,5.27598189 38.2761728,6.74720906 38.2761728,9.04664906 L38.2761728,16.9476419 L36.0202513,16.9476419 L36.0202513,15.0623083 L35.9660192,15.0623083 C35.3013494,16.3374158 33.8517736,17.1437615 32.3479615,17.1437615 C30.1029653,17.1437615 28.5335725,15.748837 28.5335725,13.6892468 Z M35.9332268,12.6539849 L35.9332268,11.7494736 L33.1105853,11.9237343 C31.7047313,12.0219 30.9093151,12.6430555 30.9093151,13.6238736 C30.9093151,14.626343 31.7375238,15.2802909 33.0017019,15.2802909 C34.6471898,15.2802909 35.9332268,14.1468634 35.9332268,12.6539849 Z" id="Shape"></path>
                        <path d="M40.4059762,21.1652038 L40.4059762,19.2580113 C40.5800253,19.3015257 40.9722687,19.3015257 41.1686,19.3015257 C42.2583057,19.3015257 42.8468804,18.8439049 43.2063313,17.6669672 C43.2063313,17.6451042 43.4135921,16.9695049 43.4135921,16.9585755 L39.2725445,5.48303509 L41.8223362,5.48303509 L44.7214879,14.8117449 L44.7647906,14.8117449 L47.6639464,5.48303509 L50.1485766,5.48303509 L45.8544962,17.5469385 C44.8741015,20.3260657 43.7406698,21.2196475 41.3649313,21.2196475 C41.1686042,21.2196475 40.5800294,21.1977845 40.4059762,21.1652038 Z" id="Path"></path>
                    </g>
                </g>
            </g>
        </g>
    </g>
</svg>