<?xml version="1.0" encoding="UTF-8"?>
<svg width="78px" height="56px" viewBox="0 0 78 56" version="1.1" xmlns="http://www.w3.org/2000/svg" xmlns:xlink="http://www.w3.org/1999/xlink">
    <title>F37EAE0C-829C-4CD8-B799-5671EBE2C912</title>
    <g id="06.-Blog-Detail" stroke="none" stroke-width="1" fill="none" fill-rule="evenodd">
        <g id="D_06_Blog-Detail_01_Article_V1-(Commerce)-V03" transform="translate(-747.000000, -2269.000000)" fill="#D3CBD6" fill-rule="nonzero">
            <g id="“-copy" transform="translate(87.000000, 2213.000000)">
                <path d="M719.207547,112 C728.037736,112 735.056604,105.647059 735.056604,96 C735.056604,87.5294118 729.169811,82.5882353 722.603774,81.1764706 L715.584906,81.1764706 C716.716981,69.4117647 726.679245,60.7058824 738,57.4117647 L738,56 C719.207547,57.4117647 702,71.2941176 702,90.8235294 C702,102.823529 708.566038,112 719.207547,112 Z M677.207547,112 C686.037736,112 693.056604,105.647059 693.056604,96 C693.056604,87.5294118 687.169811,82.5882353 680.603774,81.1764706 L673.584906,81.1764706 C674.716981,69.4117647 684.679245,60.7058824 696,57.4117647 L696,56 C677.207547,57.4117647 660,71.2941176 660,90.8235294 C660,102.823529 666.566038,112 677.207547,112 Z" transform="translate(699.000000, 84.000000) rotate(-180.000000) translate(-699.000000, -84.000000) "></path>
            </g>
        </g>
    </g>
</svg>