<?xml version="1.0" encoding="UTF-8"?>
<svg width="16" height="15" viewBox="0 0 16 15" xmlns="http://www.w3.org/2000/svg" xmlns:xlink="http://www.w3.org/1999/xlink">
    <path d="M11.2887412,0.00564146619 C10.0093434,0.0693676824 8.84257225,0.669401521 8.05199565,1.62332566 L8,1.689 L7.94804897,1.62341493 C7.11113831,0.613359989 5.85216981,-1.42108547e-14 4.48436713,-1.42108547e-14 C2.00877287,-1.42108547e-14 1.77635684e-15,1.98960688 1.77635684e-15,4.44635171 L0.008481747,4.72083706 C0.0423243399,5.2671384 0.176935155,5.79629998 0.403199523,6.28809744 L0.492,6.467 L0.519341086,6.54376847 C0.57021203,6.66725648 0.65697364,6.79968126 0.785528086,6.96604967 L0.889872298,7.09758113 C1.02338631,7.27721655 1.1707917,7.44946046 1.32805756,7.60397685 L1.60646222,7.90943741 C2.00769023,8.34268536 2.52717681,8.87811844 3.14297824,9.49553206 L4.13092866,10.4754485 L5.32260422,11.6362681 L7.65759523,13.8644396 L7.99990374,14.1859728 L9.44457901,12.8195256 L10.6773072,11.6363258 L12.1249795,10.2234624 L12.9150194,9.4373697 C13.6591841,8.690106 14.2623331,8.06232139 14.6939554,7.5809452 C14.7959193,7.48208299 14.9047373,7.36003002 15.0139731,7.22284133 L15.2231264,6.95507959 C15.3467515,6.79520194 15.4317621,6.66500965 15.4818389,6.54198153 L15.504,6.474 L15.4761546,6.53078209 C15.8183941,5.89266806 16.0001838,5.18176112 16,4.44622673 C16,1.9896069 13.991227,-1.42108547e-14 11.5156327,-1.42108547e-14 L11.2887412,0.00564146619 Z M14.5949005,6.05813934 L14.539,6.227 C14.5464479,6.17895395 14.4628085,6.30821264 14.3334647,6.46770525 C14.2049253,6.63990159 14.0902373,6.77387293 13.9716759,6.89009388 L13.6575358,7.23330528 C13.1511306,7.77793219 12.488129,8.45518139 11.6925777,9.24450889 L11.1681621,9.76221729 L9.982027,10.9175861 L7.999,12.812 L7.24545632,12.0958409 C6.83395921,11.7033779 6.42247523,11.3085515 6.01790153,10.917545 L4.57770144,9.51193003 L4.0868649,9.02512445 C3.21811194,8.15902128 2.52339612,7.44061625 2.05073366,6.91351291 C1.95736329,6.82084145 1.8752772,6.73040087 1.79629209,6.63397747 L1.51364333,6.27244444 C1.48504359,6.23737537 1.46667368,6.21920988 1.46,6.226 L1.40535166,6.05846365 C1.14039475,5.56401731 1,5.01524252 1,4.44635171 C1,2.54404905 2.55892296,1 4.48436713,1 C5.78552696,1 6.95823783,1.71197687 7.5598077,2.82774764 L7.99980671,3.64384242 L8.43997562,2.82783928 C9.041927,1.71191719 10.2145396,1 11.5156327,1 C13.4410769,1 15,2.54404908 15,4.44635171 C15.0001423,5.01548378 14.8598384,5.56415603 14.5949005,6.05813934 Z" id="Stroke-1" fill-rule="nonzero"></path>
</svg>
