<?xml version="1.0" encoding="UTF-8"?>
<svg width="18px" height="22px" viewBox="0 0 18 22" version="1.1" xmlns="http://www.w3.org/2000/svg" xmlns:xlink="http://www.w3.org/1999/xlink">
    <title>AC4E897B-634D-4B17-8A24-B76F5E8DE9B3</title>
    <g id="Page-1" stroke="none" stroke-width="1" fill="none" fill-rule="evenodd">
        <g id="LPB-Icons" transform="translate(-971.000000, -527.000000)" fill="#363139" fill-rule="nonzero" stroke="#363139" stroke-width="0.15">
            <g id="Gift-Wrap" transform="translate(972.000000, 528.000000)">
                <path d="M15.1921633,11.3981641 L5.92685714,2.53097656 C5.49134694,2.11417969 4.91110204,1.83597656 4.26538776,1.77199219 C4.12277551,0.77265625 3.22559184,0 2.14285714,0 C0.961306122,0 0,0.919960937 0,2.05078125 L0,17.9492188 C0,19.0800391 0.961306122,20 2.14285714,20 L15.6938776,20 C15.8629796,20 16,19.8688281 16,19.7070312 L16,13.2617188 C16,12.5347656 15.6910204,11.875625 15.1921633,11.3981641 Z M13.5357143,10.6398047 C13.4401224,10.6301562 13.3431429,10.625 13.244898,10.625 L6.73469388,10.625 L6.73469388,4.39453125 C6.73469388,4.30050781 6.72930612,4.20769531 6.71922449,4.11621094 L13.5357143,10.6398047 Z M0.612244898,17.9492188 C0.612244898,17.1414844 1.29885714,16.484375 2.14285714,16.484375 C2.98685714,16.484375 3.67346939,17.1414844 3.67346939,17.9492188 C3.67346939,18.7569531 2.98685714,19.4140625 2.14285714,19.4140625 C1.29885714,19.4140625 0.612244898,18.7569531 0.612244898,17.9492188 Z M15.3877551,19.4140625 L3.6404898,19.4140625 C4.0382449,19.0415234 4.28571429,18.5226172 4.28571429,17.9492188 L4.28571429,10.9179688 C4.28571429,10.7561719 4.14869388,10.7742691 3.97959184,10.7742691 C3.8104898,10.7742691 3.67346939,10.7561719 3.67346939,10.9179688 L3.67346939,16.5159375 C3.28420408,16.1352734 2.742,15.8984375 2.14285714,15.8984375 C1.54371429,15.8984375 1.0015102,16.1352734 0.612244898,16.5159375 L0.612244898,2.05078125 C0.612244898,1.24304688 1.29885714,0.5859375 2.14285714,0.5859375 C2.98685714,0.5859375 3.67346939,1.24304688 3.67346939,2.05078125 L3.67346939,10.9179688 C3.67346939,11.0797656 3.8104898,11.2109375 3.97959184,11.2109375 C4.14869388,11.2109375 4.28571429,11.0797656 4.28571429,10.9179688 L4.28571429,2.365 C5.32273469,2.50761719 6.12244898,3.36320313 6.12244898,4.39453125 L6.12244898,10.9179688 C6.12244898,11.0797656 6.25946939,11.2109375 6.42857143,11.2109375 L13.244898,11.2109375 C14.426449,11.2109375 15.3877551,12.1308984 15.3877551,13.2617188 L15.3877551,19.4140625 Z" id="Shape"></path>
            </g>
        </g>
    </g>
</svg>