<?xml version="1.0" encoding="UTF-8"?>
<svg width="57px" height="22px" viewBox="0 0 57 22" version="1.1" xmlns="http://www.w3.org/2000/svg" xmlns:xlink="http://www.w3.org/1999/xlink">
    <title>7A8C3D54-9FDC-4392-9033-2C272AA44F98</title>
    <g id="Page-1" stroke="none" stroke-width="1" fill="none" fill-rule="evenodd">
        <g id="LPB-Icons" transform="translate(-1126.000000, -688.000000)" fill="#363139" fill-rule="nonzero">
            <g id="Group-7-Copy-2" transform="translate(962.000000, 617.000000)">
                <g id="Group-6" transform="translate(0.000000, 65.000000)">
                    <g id="google-pay-primary-logo" transform="translate(164.666667, 6.000000)">
                        <path d="M26.1751317,10.7612223 L26.1751317,17.2012645 L24.1304531,17.2012645 L24.1304531,1.29357218 L29.5504742,1.29357218 C30.8579557,1.26575342 32.1213909,1.76185458 33.060274,2.67060063 C34.0107482,3.5260274 34.5462592,4.75005269 34.5253952,6.02739726 C34.5532139,7.31401475 34.0177028,8.54731296 33.060274,9.40505796 C32.112118,10.3091675 30.941412,10.7612223 29.5504742,10.7589041 L26.1751317,10.7612223 L26.1751317,10.7612223 Z M26.1751317,3.25247629 L26.1751317,8.80695469 L29.6014752,8.80695469 C30.3618546,8.83013699 31.0944152,8.53108535 31.6229715,7.98398314 C32.6963119,6.94077977 32.7218124,5.22297155 31.6762908,4.14963119 C31.657745,4.13108535 31.6415174,4.11253952 31.6229715,4.09631191 C31.1013699,3.53761855 30.3641728,3.23161222 29.6014752,3.25247629 L26.1751317,3.25247629 L26.1751317,3.25247629 Z M39.2360379,5.96248683 C40.7475237,5.96248683 41.9390938,6.3658588 42.8130664,7.17260274 C43.687039,7.97934668 44.1228662,9.08746048 44.1228662,10.4923077 L44.1228662,17.2012645 L42.1685985,17.2012645 L42.1685985,15.6897787 L42.0805058,15.6897787 C41.2343519,16.9346681 40.1076923,17.5559536 38.7028451,17.5559536 C37.5043203,17.5559536 36.5005269,17.2012645 35.6937829,16.489568 C34.9102213,15.8288725 34.4651212,14.8505796 34.483667,13.8236038 C34.483667,12.6969442 34.9102213,11.8021075 35.7610116,11.1367756 C36.6118019,10.4714436 37.7477345,10.1376185 39.1711275,10.1376185 C40.3835616,10.1376185 41.3850369,10.3601686 42.1685985,10.8029505 L42.1685985,10.3346681 C42.173235,9.6345627 41.8625922,8.971549 41.3247629,8.52644889 C40.7846154,8.03962065 40.0798736,7.77302424 39.3519494,7.78229715 C38.2113804,7.78229715 37.3072708,8.26448894 36.6419389,9.22655427 L34.8429926,8.09293994 C35.8305585,6.67186512 37.2956797,5.96248683 39.2360379,5.96248683 L39.2360379,5.96248683 Z M36.590922,13.8699684 C36.5886196,14.3985248 36.8413066,14.8946259 37.2678609,15.2029505 C37.7199157,15.5576396 38.2809273,15.7477345 38.8558483,15.7361433 C39.7182297,15.7338251 40.5458377,15.3907271 41.1555321,14.7810327 C41.8324552,14.1435195 42.1709168,13.3970495 42.1709168,12.5369863 C41.5334036,12.029294 40.6455216,11.7742887 39.5049526,11.7742887 C38.6750263,11.7742887 37.9818757,11.9736565 37.4278188,12.3747102 C36.8691254,12.7827187 36.590922,13.2765016 36.590922,13.8699684 L36.590922,13.8699684 Z M55.343098,6.31717597 L48.5205479,22 L46.4109589,22 L48.9424658,16.5127503 L44.454373,6.31717597 L46.6752371,6.31717597 L49.9184405,14.1365648 L49.9624868,14.1365648 L53.1175975,6.31717597 L55.343098,6.31717597 Z" id="Shape"></path>
                        <path d="M17.9152792,9.37028451 C17.9152792,8.74668072 17.8642782,8.12539515 17.7576396,7.51106428 L9.13846154,7.51106428 L9.13846154,11.030137 L14.0739726,11.030137 C13.8699684,12.1660695 13.2115911,13.169863 12.2495258,13.8073762 L12.2495258,16.0931507 L15.1959958,16.0931507 C16.9207587,14.5051633 17.9152792,12.1521602 17.9152792,9.37028451 L17.9152792,9.37028451 Z" id="Path"></path>
                        <path d="M9.13846154,18.3024236 C11.605058,18.3024236 13.6821918,17.4933614 15.1959958,16.0954689 L12.2495258,13.8096944 C11.4288725,14.3660695 10.374078,14.683667 9.13846154,14.683667 C6.75532139,14.683667 4.73150685,13.0771338 4.00821918,10.9119073 L0.973656481,10.9119073 L0.973656481,13.2672287 C2.52455216,16.3551106 5.68429926,18.3024236 9.13846154,18.3024236 Z" id="Path"></path>
                        <path d="M4.00821918,10.9119073 C3.62571128,9.77829294 3.62571128,8.54731296 4.00821918,7.41369863 L4.00821918,5.05837724 L0.973656481,5.05837724 C-0.32455216,7.64088514 -0.32455216,10.6847208 0.973656481,13.2672287 L4.00821918,10.9119073 Z" id="Path"></path>
                        <path d="M9.13846154,3.64193888 C10.4413066,3.62107482 11.7001054,4.11253952 12.6436249,5.01201264 L15.2539515,2.40400421 C13.5987355,0.850790306 11.4080084,-0.00231822972 9.13846154,0.0231822972 C5.68429926,0.0231822972 2.52455216,1.97281349 0.973656481,5.05837724 L4.00821918,7.41369863 C4.73150685,5.24847208 6.75532139,3.64193888 9.13846154,3.64193888 Z" id="Path"></path>
                    </g>
                </g>
            </g>
        </g>
    </g>
</svg>