<?xml version="1.0" encoding="UTF-8"?>
<svg width="42px" height="34px" viewBox="0 0 42 34" version="1.1" xmlns="http://www.w3.org/2000/svg" xmlns:xlink="http://www.w3.org/1999/xlink">
    <title>8819D231-ADE0-4C9D-9B54-82AFDBDC7C0D</title>
    <g id="Page-1" stroke="none" stroke-width="1" fill="none" fill-rule="evenodd">
        <g id="LPB-Icons" transform="translate(-1049.000000, -682.000000)">
            <g id="Group-7-Copy-2" transform="translate(962.000000, 617.000000)">
                <g id="Group-6" transform="translate(0.000000, 65.000000)">
                    <g id="mc_vrt_pos" transform="translate(87.333333, 0.000000)">
                        <rect id="Rectangle" x="0" y="0" width="40.7642975" height="33.4361653"></rect>
                        <path d="M10.0938843,29.2292231 L10.0938843,27.5631074 C10.1135278,27.2796443 10.0102486,27.0014346 9.81039502,26.799455 C9.61054146,26.5974753 9.33344027,26.4912579 9.04978512,26.5079008 C8.67597378,26.4833944 8.31845183,26.6642835 8.11676033,26.9799669 C7.93287556,26.6736958 7.59617646,26.4925602 7.23927273,26.5079008 C6.9285192,26.4921913 6.63268486,26.6422216 6.46175207,26.9022149 L6.46175207,26.5745455 L5.88416529,26.5745455 L5.88416529,29.2292231 L6.46730579,29.2292231 L6.46730579,27.768595 C6.44219142,27.584792 6.50042751,27.3993719 6.62612195,27.2629344 C6.75181638,27.1264968 6.93184917,27.0532831 7.11709091,27.0632727 C7.50029752,27.0632727 7.69467769,27.3131901 7.69467769,27.7630413 L7.69467769,29.2403306 L8.27781818,29.2403306 L8.27781818,27.768595 C8.25373436,27.585001 8.31232655,27.4001817 8.43778794,27.2639971 C8.56324933,27.1278125 8.74265421,27.0542931 8.92760331,27.0632727 C9.32191736,27.0632727 9.5107438,27.3131901 9.5107438,27.7630413 L9.5107438,29.2403306 L10.0938843,29.2292231 Z M18.7215868,26.5745455 L17.7719008,26.5745455 L17.7719008,25.7692562 L17.1887603,25.7692562 L17.1887603,26.5745455 L16.661157,26.5745455 L16.661157,27.1021488 L17.1998678,27.1021488 L17.1998678,28.3239669 C17.1998678,28.9404298 17.4386777,29.3069829 18.1217851,29.3069829 C18.3769948,29.3078325 18.627259,29.2366034 18.8437686,29.1014876 L18.677157,28.6072066 C18.5222647,28.6995954 18.3464694,28.7511875 18.1662149,28.757157 C17.8885289,28.757157 17.7830083,28.579438 17.7830083,28.3128595 L17.7830083,27.1021488 L18.7271405,27.1021488 L18.7215868,26.5745455 Z M23.6477355,26.5079008 C23.360863,26.499464 23.0923589,26.6486329 22.9479669,26.8966612 L22.9479669,26.5745455 L22.3759339,26.5745455 L22.3759339,29.2292231 L22.9535207,29.2292231 L22.9535207,27.7408264 C22.9535207,27.3020826 23.1423471,27.057719 23.5088926,27.057719 C23.6324306,27.0560292 23.7550931,27.0786746 23.8698843,27.1243636 L24.0476033,26.5689917 C23.9156947,26.5218029 23.776722,26.4973888 23.6366281,26.4967934 L23.6477355,26.5079008 Z M16.2001983,26.7855868 C15.8732579,26.5912002 15.4973613,26.4948165 15.1172231,26.5079008 C14.4452231,26.5079008 14.0064793,26.8300165 14.0064793,27.3576198 C14.0064793,27.7908099 14.328595,28.0573884 14.922843,28.1406942 L15.2005289,28.1795702 C15.5170909,28.224 15.6670413,28.3073058 15.6670413,28.4572562 C15.6670413,28.6627438 15.456,28.7793719 15.061686,28.7793719 C14.7445137,28.7885528 14.4334779,28.6907428 14.1786446,28.501686 L13.9009587,28.9515372 C14.2374068,29.1864569 14.6403869,29.3071562 15.0505785,29.2958678 C15.8169917,29.2958678 16.2612893,28.934876 16.2612893,28.4294876 C16.2612893,27.9240992 15.911405,27.7186116 15.3338182,27.6353058 L15.0561322,27.5964298 C14.8062149,27.5631074 14.606281,27.513124 14.606281,27.335405 C14.606281,27.157686 14.7951074,27.0243967 15.1116694,27.0243967 C15.4042603,27.0277956 15.6910878,27.1061951 15.9447273,27.2520992 L16.2001983,26.7855868 Z M31.6700826,26.5079008 C31.3832101,26.499464 31.114706,26.6486329 30.970314,26.8966612 L30.970314,26.5745455 L30.398281,26.5745455 L30.398281,29.2292231 L30.9758678,29.2292231 L30.9758678,27.7408264 C30.9758678,27.3020826 31.1646942,27.057719 31.5312397,27.057719 C31.6547778,27.0560292 31.7774402,27.0786746 31.8922314,27.1243636 L32.0699504,26.5689917 C31.9380418,26.5218029 31.7990692,26.4973888 31.6589752,26.4967934 L31.6700826,26.5079008 Z M24.2280992,27.8963306 C24.2142087,28.2735489 24.359918,28.6391579 24.6294619,28.9034166 C24.8990058,29.1676753 25.2674282,29.306117 25.6442975,29.2847603 C25.9910936,29.3024045 26.3319129,29.1894585 26.5995372,28.9681983 L26.3218512,28.501686 C26.122187,28.6539442 25.8787152,28.7376985 25.6276364,28.7404959 C25.1849219,28.7046753 24.8438923,28.3349381 24.8438923,27.8907769 C24.8438923,27.4466156 25.1849219,27.0768784 25.6276364,27.0410579 C25.8787152,27.0438552 26.122187,27.1276095 26.3218512,27.2798678 L26.5995372,26.8133554 C26.3319129,26.5920952 25.9910936,26.4791493 25.6442975,26.4967934 C25.2674282,26.4754367 24.8990058,26.6138784 24.6294619,26.8781371 C24.359918,27.1423958 24.2142087,27.5080049 24.2280992,27.8852231 L24.2280992,27.8963306 Z M29.6374215,27.8963306 L29.6374215,26.5745455 L29.0598347,26.5745455 L29.0598347,26.8966612 C28.8608459,26.6406208 28.5508298,26.4959467 28.2267769,26.5079008 C27.4599683,26.5079008 26.8383471,27.129522 26.8383471,27.8963306 C26.8383471,28.6631392 27.4599683,29.2847603 28.2267769,29.2847603 C28.5508298,29.2967145 28.8608459,29.1520403 29.0598347,28.896 L29.0598347,29.2181157 L29.6374215,29.2181157 L29.6374215,27.8963306 Z M27.4881322,27.8963306 C27.5138168,27.4605493 27.8831244,27.1252268 28.3193547,27.1416003 C28.7555851,27.1579738 29.0987169,27.5200371 29.0916619,27.9565176 C29.084607,28.3929981 28.7299531,28.7437828 28.2934215,28.7460496 C28.0711447,28.7488621 27.8577945,28.6587112 27.7048834,28.4973636 C27.5519723,28.336016 27.4733981,28.1181363 27.4881322,27.8963306 L27.4881322,27.8963306 Z M20.5182149,26.5079008 C19.7514063,26.5186361 19.1384878,27.14896 19.1492231,27.9157686 C19.1599585,28.6825772 19.7902823,29.2954957 20.5570909,29.2847603 C20.9566086,29.3052671 21.3494971,29.1766135 21.6595041,28.9237686 L21.3818182,28.4961322 C21.1625468,28.6719848 20.8908977,28.7697003 20.6098512,28.7738182 C20.2128621,28.8079597 19.8608157,28.5199218 19.8156694,28.1240331 L21.7872397,28.1240331 C21.7872397,28.0518347 21.7872397,27.9796364 21.7872397,27.9018843 C21.7872397,27.0688264 21.2707438,26.5134545 20.5265455,26.5134545 L20.5182149,26.5079008 Z M20.5182149,27.0243967 C20.6927691,27.0206753 20.8616485,27.0864678 20.9876816,27.2072928 C21.1137146,27.3281179 21.1865711,27.4940722 21.1902149,27.6686281 L19.8017851,27.6686281 C19.8227028,27.2978683 20.1359741,27.0117307 20.5071074,27.0243967 L20.5182149,27.0243967 Z M34.9884298,27.9018843 L34.9884298,25.5082314 L34.4330579,25.5082314 L34.4330579,26.8966612 C34.234069,26.6406208 33.9240529,26.4959467 33.6,26.5079008 C32.8331914,26.5079008 32.2115702,27.129522 32.2115702,27.8963306 C32.2115702,28.6631392 32.8331914,29.2847603 33.6,29.2847603 C33.9240529,29.2967145 34.234069,29.1520403 34.4330579,28.896 L34.4330579,29.2181157 L34.9884298,29.2181157 L34.9884298,27.9018843 Z M35.952,28.8432397 C35.9881028,28.8427974 36.0239453,28.8493999 36.0575207,28.8626777 C36.0894109,28.8756912 36.1186017,28.894524 36.1436033,28.9182149 C36.1680033,28.9421573 36.1877728,28.9703994 36.2019174,29.0015207 C36.2303416,29.0670677 36.2303416,29.1414613 36.2019174,29.2070083 C36.1877728,29.2381295 36.1680033,29.2663716 36.1436033,29.290314 C36.1186017,29.3140049 36.0894109,29.3328378 36.0575207,29.3458512 C36.0242767,29.3605201 35.9883364,29.3680865 35.952,29.3680662 C35.8445493,29.3672562 35.7472102,29.3045265 35.7020826,29.2070083 C35.6739875,29.1413934 35.6739875,29.0671356 35.7020826,29.0015207 C35.7162272,28.9703994 35.7359967,28.9421573 35.7603967,28.9182149 C35.7853983,28.894524 35.8145891,28.8756912 35.8464793,28.8626777 C35.8826479,28.8482903 35.9214372,28.8416678 35.9603306,28.8432397 L35.952,28.8432397 Z M35.952,29.3125289 C35.9797157,29.3126973 36.0071555,29.3070201 36.0325289,29.2958678 C36.05642,29.2852012 36.0780873,29.2701283 36.0963967,29.251438 C36.1683998,29.1728787 36.1683998,29.0523114 36.0963967,28.9737521 C36.0781309,28.9550102 36.0564532,28.9399301 36.0325289,28.9293223 C36.0071304,28.9182486 35.9797075,28.9125749 35.952,28.9126602 C35.9243165,28.9128075 35.8969399,28.9184716 35.8714711,28.9293223 C35.8465223,28.9395523 35.8238652,28.954657 35.8048264,28.9737521 C35.7328233,29.0523114 35.7328233,29.1728787 35.8048264,29.251438 C35.823912,29.270476 35.8465569,29.2855727 35.8714711,29.2958678 C35.8994867,29.3079493 35.9298412,29.3136408 35.9603306,29.3125289 L35.952,29.3125289 Z M35.9686612,28.9820826 C35.9945835,28.9808255 36.0201277,28.9886853 36.0408595,29.0042975 C36.0581045,29.0185695 36.0674095,29.0402811 36.0658512,29.0626116 C36.0666573,29.0812596 36.0596062,29.0993911 36.0464132,29.112595 C36.030318,29.1272141 36.0097855,29.1360137 35.9880992,29.1375868 L36.0686281,29.2292231 L36.0047603,29.2292231 L35.9297851,29.1375868 L35.9047934,29.1375868 L35.9047934,29.2292231 L35.8520331,29.2292231 L35.8520331,28.9848595 L35.9686612,28.9820826 Z M35.9075702,29.0292893 L35.9075702,29.0959339 L35.9686612,29.0959339 C35.9795322,29.099175 35.9911125,29.099175 36.0019835,29.0959339 C36.0059441,29.0880741 36.0059441,29.078802 36.0019835,29.0709421 C36.0059441,29.0630823 36.0059441,29.0538102 36.0019835,29.0459504 C35.9911125,29.0427093 35.9795322,29.0427093 35.9686612,29.0459504 L35.9075702,29.0292893 Z M32.8530248,27.9018843 C32.8787094,27.466103 33.2480169,27.1307805 33.6842473,27.147154 C34.1204776,27.1635275 34.4636095,27.5255908 34.4565545,27.9620713 C34.4494995,28.3985518 34.0948457,28.7493365 33.658314,28.7516033 C33.4360373,28.7544158 33.2226871,28.6642649 33.069776,28.5029173 C32.9168648,28.3415697 32.8382906,28.12369 32.8530248,27.9018843 L32.8530248,27.9018843 Z M13.3511405,27.9018843 L13.3511405,26.5745455 L12.7735537,26.5745455 L12.7735537,26.8966612 C12.5745649,26.6406208 12.2645488,26.4959467 11.9404959,26.5079008 C11.1736873,26.5079008 10.5520661,27.129522 10.5520661,27.8963306 C10.5520661,28.6631392 11.1736873,29.2847603 11.9404959,29.2847603 C12.2645488,29.2967145 12.5745649,29.1520403 12.7735537,28.896 L12.7735537,29.2181157 L13.3511405,29.2181157 L13.3511405,27.9018843 Z M11.2018512,27.9018843 C11.2275358,27.466103 11.5968434,27.1307805 12.0330737,27.147154 C12.4693041,27.1635275 12.8124359,27.5255908 12.805381,27.9620713 C12.798326,28.3985518 12.4436721,28.7493365 12.0071405,28.7516033 C11.7839058,28.7559858 11.5690703,28.6665223 11.4149276,28.5049892 C11.2607849,28.3434561 11.1814731,28.1246693 11.1962975,27.9018843 L11.2018512,27.9018843 Z" id="Shape" fill="#363139" fill-rule="nonzero"></path>
                        <g id="_Group_" transform="translate(4.165289, 4.165289)" fill-rule="nonzero">
                            <rect id="Rectangle" fill="#595959" x="11.8433058" y="2.17983471" width="8.74710744" height="15.7198017"></rect>
                            <path d="M12.3986777,10.041124 C12.3954073,6.97310859 13.8034475,4.07408171 16.2168595,2.17983471 C12.1181567,-1.04130793 6.23225499,-0.572120653 2.69560801,3.25766434 C-0.84103897,7.08744934 -0.84103897,12.9920217 2.69560801,16.8218067 C6.23225499,20.6515917 12.1181567,21.120779 16.2168595,17.8996364 C13.8042153,16.0059907 12.3962611,13.1081649 12.3986777,10.041124 L12.3986777,10.041124 Z" id="_Path_" fill="#363139"></path>
                            <path d="M32.3920661,10.041124 C32.3920661,13.868575 30.2065169,17.3599955 26.7638593,19.0325656 C23.3212018,20.7051357 19.2257505,20.2652138 16.2168595,17.8996364 C18.628451,16.0043831 20.0365112,13.1069425 20.0365112,10.0397355 C20.0365112,6.97252857 18.628451,4.07508802 16.2168595,2.17983471 C19.2257505,-0.185742695 23.3212018,-0.625664607 26.7638593,1.0469055 C30.2065169,2.71947561 32.3920661,6.21089603 32.3920661,10.0383471 L32.3920661,10.041124 Z" id="Path" fill="#B2B2B2"></path>
                            <path d="M31.4368264,16.2335207 L31.4368264,15.911405 L31.5673388,15.911405 L31.5673388,15.8447603 L31.2368926,15.8447603 L31.2368926,15.911405 L31.3785124,15.911405 L31.3785124,16.2335207 L31.4368264,16.2335207 Z M32.078281,16.2335207 L32.078281,15.8447603 L31.978314,15.8447603 L31.861686,16.1224463 L31.7450579,15.8447603 L31.6561983,15.8447603 L31.6561983,16.2335207 L31.7283967,16.2335207 L31.7283967,15.9419504 L31.8366942,16.1946446 L31.9116694,16.1946446 L32.0199669,15.9419504 L32.0199669,16.2362975 L32.078281,16.2335207 Z" id="Shape" fill="#F79E1B"></path>
                        </g>
                    </g>
                </g>
            </g>
        </g>
    </g>
</svg>