<?xml version="1.0" encoding="UTF-8"?>
<svg width="18px" height="14px" viewBox="0 0 18 14" version="1.1" xmlns="http://www.w3.org/2000/svg" xmlns:xlink="http://www.w3.org/1999/xlink">
    <title>C8CC277D-7386-4878-B0E0-C936ADE61BF4</title>
    <g id="Page-1" stroke="none" stroke-width="1" fill="none" fill-rule="evenodd">
        <g id="LPB-Icons" transform="translate(-1321.000000, -461.000000)" fill="#363139" fill-rule="nonzero">
            <g id="Combined-Shape" transform="translate(1321.000000, 461.000000)">
                <path d="M16.3124883,0.183140037 L16.4522197,0.189435901 C17.2347125,0.260272204 17.85,0.920038201 17.85,1.72065178 L17.85,1.72065178 L17.85,11.8456471 L17.8437041,11.9853785 C17.7728678,12.7678714 17.1131018,13.3831588 16.3124883,13.3831588 L16.3124883,13.3831588 L1.68751174,13.3831588 L1.54778028,13.376863 C0.765287465,13.3060267 0.15,12.6462607 0.15,11.8456471 L0.15,11.8456471 L0.15,1.72065178 L0.156295864,1.58092032 C0.227132167,0.798427502 0.886898164,0.183140037 1.68751174,0.183140037 L1.68751174,0.183140037 L16.3124883,0.183140037 Z M17.0250047,2.06175896 L9.27035877,8.78245468 L9.20996804,8.82592573 C9.14642494,8.8634898 9.07417747,8.88314004 9,8.88314004 C8.90113344,8.88314004 8.80563723,8.84819032 8.7295325,8.78236054 L8.7295325,8.78236054 L0.974995303,2.06175896 L0.974995303,11.8456095 L0.981505444,11.9422341 C1.02872577,12.2898349 1.32706629,12.5581259 1.68751174,12.5581259 L1.68751174,12.5581259 L16.3124883,12.5581259 L16.4091082,12.5516163 C16.7566951,12.5043991 17.0250047,12.2060783 17.0250047,11.8456471 L17.0250047,11.8456471 L17.0250047,2.06175896 Z M16.3124883,1.00813534 L1.68747417,1.00813534 L1.59395652,1.01440262 C1.53224709,1.02270902 1.4719883,1.03917191 1.41425602,1.06319167 L1.41425602,1.06319167 L1.19048009,1.15629461 L8.90175811,7.83967678 L9.09824217,7.83967678 L16.8093832,1.15637977 L16.5857731,1.06321945 L16.4974301,1.03291065 C16.4374364,1.01658943 16.375427,1.00813534 16.3124883,1.00813534 L16.3124883,1.00813534 Z"></path>
            </g>
        </g>
    </g>
</svg>