<?xml version="1.0" encoding="UTF-8"?>
<svg width="14px" height="20px" viewBox="0 0 14 20" version="1.1" xmlns="http://www.w3.org/2000/svg" xmlns:xlink="http://www.w3.org/1999/xlink">
    <title>5C1AC981-8DA2-4812-AD6C-10C65982C5FF</title>
    <g id="Page-1" stroke="none" stroke-width="1" fill="none" fill-rule="evenodd">
        <g id="LPB-Icons" transform="translate(-1253.000000, -458.000000)">
            <g id="Nib" transform="translate(1254.000000, 459.000000)">
                <g id="Group-7-Copy" transform="translate(0.000000, 0.000000)">
                    <path d="M5.78441285,9.5457172 C5.97250143,9.28184019 6.17557509,9.12124838 6.16541279,8.97481664 C6.15576723,8.83937977 5.9173839,8.61948227 5.78027903,8.61981507 C5.64386314,8.61998203 5.40720223,8.84237837 5.3989346,8.97781524 C5.389978,9.12458016 5.59425736,9.2833395 5.78441285,9.5457172 M11.1864478,11.7651827 C9.44680067,8.13320893 7.70835923,4.50423381 5.96991779,0.8750921 C5.89137531,3.27430711 5.88706925,5.64386927 5.90326003,8.01343143 C5.90412124,8.1458697 6.05104391,8.30829399 6.17436939,8.40308314 C6.5160981,8.66612719 6.58706192,9.06394176 6.31664152,9.38629151 C6.04777131,9.70664219 5.5977022,9.73312984 5.29972304,9.44643014 C4.99588764,9.15423301 4.98469189,8.69794569 5.33847756,8.46821944 C5.59029579,8.30479562 5.60614208,8.12021499 5.60579759,7.87899409 C5.60149153,5.67535459 5.60321396,3.47171509 5.6033862,1.267909 L5.6033862,0.964217224 C5.57462174,0.960219087 5.54585727,0.95638754 5.51709281,0.952389403 C3.80414323,4.55637617 2.09119365,8.16052953 0.378933039,11.7623506 C2.19436678,12.7109085 2.77689021,13.4302399 3.22902622,15.4213118 C3.39575676,16.1558028 3.44191769,16.9159484 3.54388513,17.6697637 L8.05594418,17.6697637 C8.23662634,15.257888 8.47931573,12.9161462 11.1864478,11.7651827 M0,11.9287731 C0.0733752158,11.7608513 0.139688498,11.5972609 0.215302863,11.4378352 C1.97854719,7.72606538 3.74213601,4.0144621 5.5105476,0.304857899 C5.56480393,0.19124419 5.6714219,0.101119533 5.75358148,0 C5.84090832,0.0981209303 5.95699962,0.183247917 6.0110837,0.296028681 C7.8129103,4.05177804 9.60578031,7.81152554 11.4110518,11.565609 C11.5591801,11.8734655 11.5486733,11.994076 11.1752521,12.1160191 C9.98264644,12.5055042 9.32054707,13.4047517 8.89269722,14.4942439 C8.51755351,15.4494653 8.38699386,16.4493326 8.38819955,17.4621938 C8.38854404,17.8793327 8.24971675,18.008106 7.81566618,17.99961 C6.48319982,17.9739553 5.14952776,17.990281 3.81654468,17.9901144 C3.19027171,17.9901144 3.20370661,17.9894481 3.18165959,17.3619072 C3.14256059,16.2524244 3.00321658,15.1607666 2.51542641,14.1352446 C2.04020993,13.1360437 1.34504005,12.3727328 0.210652321,12.0590457 C0.146061462,12.0410541 0.0923218678,11.9870792 0,11.9287731" id="Fill-1" fill="#363139"></path>
                    <path d="M5.78441285,9.5457172 C5.97250143,9.28184019 6.17557509,9.12124838 6.16541279,8.97481664 C6.15576723,8.83937977 5.9173839,8.61948227 5.78027903,8.61981507 C5.64386314,8.61998203 5.40720223,8.84237837 5.3989346,8.97781524 C5.389978,9.12458016 5.59425736,9.2833395 5.78441285,9.5457172 Z M11.1864478,11.7651827 C9.44680067,8.13320893 7.70835923,4.50423381 5.96991779,0.8750921 C5.89137531,3.27430711 5.88706925,5.64386927 5.90326003,8.01343143 C5.90412124,8.1458697 6.05104391,8.30829399 6.17436939,8.40308314 C6.5160981,8.66612719 6.58706192,9.06394176 6.31664152,9.38629151 C6.04777131,9.70664219 5.5977022,9.73312984 5.29972304,9.44643014 C4.99588764,9.15423301 4.98469189,8.69794569 5.33847756,8.46821944 C5.59029579,8.30479562 5.60614208,8.12021499 5.60579759,7.87899409 C5.60149153,5.67535459 5.60321396,3.47171509 5.6033862,1.267909 L5.6033862,0.964217224 C5.57462174,0.960219087 5.54585727,0.95638754 5.51709281,0.952389403 C3.80414323,4.55637617 2.09119365,8.16052953 0.378933039,11.7623506 C2.19436678,12.7109085 2.77689021,13.4302399 3.22902622,15.4213118 C3.39575676,16.1558028 3.44191769,16.9159484 3.54388513,17.6697637 L8.05594418,17.6697637 C8.23662634,15.257888 8.47931573,12.9161462 11.1864478,11.7651827 Z M0,11.9287731 C0.0733752158,11.7608513 0.139688498,11.5972609 0.215302863,11.4378352 C1.97854719,7.72606538 3.74213601,4.0144621 5.5105476,0.304857899 C5.56480393,0.19124419 5.6714219,0.101119533 5.75358148,0 C5.84090832,0.0981209303 5.95699962,0.183247917 6.0110837,0.296028681 C7.8129103,4.05177804 9.60578031,7.81152554 11.4110518,11.565609 C11.5591801,11.8734655 11.5486733,11.994076 11.1752521,12.1160191 C9.98264644,12.5055042 9.32054707,13.4047517 8.89269722,14.4942439 C8.51755351,15.4494653 8.38699386,16.4493326 8.38819955,17.4621938 C8.38854404,17.8793327 8.24971675,18.008106 7.81566618,17.99961 C6.48319982,17.9739553 5.14952776,17.990281 3.81654468,17.9901144 C3.19027171,17.9901144 3.20370661,17.9894481 3.18165959,17.3619072 C3.14256059,16.2524244 3.00321658,15.1607666 2.51542641,14.1352446 C2.04020993,13.1360437 1.34504005,12.3727328 0.210652321,12.0590457 C0.146061462,12.0410541 0.0923218678,11.9870792 0,11.9287731 Z" id="Stroke-3" stroke="#363139" stroke-width="0.5"></path>
                </g>
            </g>
        </g>
    </g>
</svg>