<?xml version="1.0" encoding="UTF-8"?>
<svg width="78px" height="56px" viewBox="0 0 78 56" version="1.1" xmlns="http://www.w3.org/2000/svg" xmlns:xlink="http://www.w3.org/1999/xlink">
    <title>294CCE8D-C9B9-4521-9BFB-C9364F25CFE3</title>
    <g id="06.-Blog-Detail" stroke="none" stroke-width="1" fill="none" fill-rule="evenodd">
        <g id="D_06_Blog-Detail_01_Article_V1-(Commerce)-V03" transform="translate(-87.000000, -2213.000000)" fill="#D3CBD6" fill-rule="nonzero">
            <g id="“-copy-2" transform="translate(87.000000, 2213.000000)">
                <path d="M59.2075472,56 C68.0377358,56 75.0566038,49.6470588 75.0566038,40 C75.0566038,31.5294118 69.1698113,26.5882353 62.6037736,25.1764706 L55.5849057,25.1764706 C56.7169811,13.4117647 66.6792453,4.70588235 78,1.41176471 L78,1.0658141e-14 C59.2075472,1.41176471 42,15.2941176 42,34.8235294 C42,46.8235294 48.5660377,56 59.2075472,56 Z M17.2075472,56 C26.0377358,56 33.0566038,49.6470588 33.0566038,40 C33.0566038,31.5294118 27.1698113,26.5882353 20.6037736,25.1764706 L13.5849057,25.1764706 C14.7169811,13.4117647 24.6792453,4.70588235 36,1.41176471 L36,1.0658141e-14 C17.2075472,1.41176471 -7.10542736e-15,15.2941176 -7.10542736e-15,34.8235294 C-7.10542736e-15,46.8235294 6.56603774,56 17.2075472,56 Z" transform="translate(39.000000, 28.000000) rotate(-360.000000) translate(-39.000000, -28.000000) "></path>
            </g>
        </g>
    </g>
</svg>