<?xml version="1.0" encoding="UTF-8"?>
<svg width="12" height="16" viewBox="0 0 12 16" xmlns="http://www.w3.org/2000/svg" xmlns:xlink="http://www.w3.org/1999/xlink">
    <path d="M6,0.5 C2.95683022,0.5 0.5,3.07967173 0.5,6.25 C0.5,7.25137627 0.993761885,8.53995915 1.87551042,10.078556 C2.22701209,10.6919048 2.63466014,11.3337079 3.08748047,11.9948485 C3.64129785,12.8034498 4.23380965,13.5998276 4.8262986,14.3503634 L5.12577105,14.7256598 L5.6198996,15.3248441 L6,15.7696 L6.60045319,15.0612331 L6.87422895,14.7256598 C6.96997287,14.607004 7.06999958,14.4817278 7.1737014,14.3503634 C7.76619035,13.5998276 8.35870215,12.8034498 8.91251953,11.9948485 C9.36533986,11.3337079 9.77298791,10.6919048 10.1244896,10.078556 C11.0062381,8.53995915 11.5,7.25137627 11.5,6.25 C11.5,3.07967173 9.04316978,0.5 6,0.5 Z M6,1.5 C8.47967772,1.5 10.5,3.6213384 10.5,6.25 C10.5,7.02995996 10.058062,8.1832968 9.25686662,9.58133336 C8.9196522,10.1697517 8.52606662,10.7894148 8.08748047,11.4297728 C7.54754785,12.2181016 6.96818465,12.9968068 6.3887986,13.7307445 L6,14.216 L5.6112014,13.7307445 C5.03181535,12.9968068 4.45245215,12.2181016 3.91251953,11.4297728 C3.47393338,10.7894148 3.0803478,10.1697517 2.74313338,9.58133336 C1.94193802,8.1832968 1.5,7.02995996 1.5,6.25 C1.5,3.6213384 3.52032228,1.5 6,1.5 Z"></path>
    <path d="M6,3.63333333 C4.61928813,3.63333333 3.5,4.75262146 3.5,6.13333333 C3.5,7.51404521 4.61928813,8.63333333 6,8.63333333 C7.38071187,8.63333333 8.5,7.51404521 8.5,6.13333333 C8.5,4.75262146 7.38071187,3.63333333 6,3.63333333 Z M6,4.63333333 C6.82842712,4.63333333 7.5,5.30490621 7.5,6.13333333 C7.5,6.96176046 6.82842712,7.63333333 6,7.63333333 C5.17157288,7.63333333 4.5,6.96176046 4.5,6.13333333 C4.5,5.30490621 5.17157288,4.63333333 6,4.63333333 Z"></path>
</svg>
