<?xml version="1.0" encoding="UTF-8"?>
<svg width="20px" height="20px" viewBox="0 0 20 20" version="1.1" xmlns="http://www.w3.org/2000/svg" xmlns:xlink="http://www.w3.org/1999/xlink">
    <title>3E4C2DF8-F016-4D9E-82C1-01575FB28617</title>
    <g id="Page-1" stroke="none" stroke-width="1" fill="none" fill-rule="evenodd">
        <g id="LPB-Icons" transform="translate(-970.000000, -458.000000)" fill="#363139" stroke="#363139" stroke-width="0.6">
            <g id="Plant" transform="translate(971.000000, 459.000000)">
                <path d="M14.0238534,1.28622682 C11.7053645,1.72339962 9.91418474,3.81305894 9.85807714,6.11446863 C9.85125555,6.39157816 9.92816901,6.57848538 10.2037614,6.64651227 C10.9396407,6.82825077 11.6734736,7.12486801 12.4168566,7.15271235 C15.3040958,7.26008813 17.6998393,5.00002812 17.7864735,2.15823817 C17.790737,2.02551904 17.6541346,1.82827441 17.5275941,1.76224831 C16.7659632,1.36409093 15.9489069,1.1586764 15.0750609,1.16064845 C14.724431,1.20135994 14.3695376,1.22103438 14.0238534,1.28622682 Z M0.588043985,0.904075765 C0.331211012,1.02462341 0.250034056,1.17051441 0.261289685,1.4427887 C0.428077631,5.53557314 4.43576347,8.30500116 8.41582186,6.97164078 C9.7456914,6.52596462 9.69521161,6.74821913 9.46123097,5.2456252 C9.01305232,2.36815448 6.45495497,0.268657935 3.45942298,0.258320515 C2.44130024,0.254985864 1.48542453,0.483409487 0.588043985,0.904075765 Z M11.6108854,2.13506234 C13.2669977,0.774524557 15.8626138,0.526593223 17.7417921,1.58034308 C17.8681621,1.65120442 17.9911213,1.84628153 17.996408,1.98800421 C18.0985614,4.66506238 16.0096191,7.01199006 13.2901911,7.37429994 C12.0856683,7.53469667 10.9909732,7.27092575 9.8437518,6.78023179 C9.84639341,14.1424196 9.84639341,17.8724495 9.8437518,17.9703216 C9.83978937,18.1171297 9.56560135,18.1171297 9.54172577,17.9703216 C9.51785019,17.8235135 9.56560135,11.6516573 9.56560135,8.71099497 L9.56560135,6.88077153 C8.86570591,7.07818289 8.21492595,7.31527661 7.54248743,7.44249356 C4.3322458,8.05023379 1.17930555,6.14364683 0.278173127,3.042421 C0.110361941,2.4645259 0.0956955165,1.84428074 0.00633264923,1.24421021 C-0.0305039525,0.997279273 0.0963776757,0.872229844 0.308529215,0.762853277 C3.85405213,-1.0655361 8.24835175,0.488411464 9.54172577,4.40062453 C9.59698067,4.56785729 9.64097995,4.73859145 9.69009542,4.90782501 C10.1091118,3.8153932 10.7041252,2.87985674 11.6108854,2.13506234 Z" id="Fill-1"></path>
            </g>
        </g>
    </g>
</svg>