<?xml version="1.0" encoding="UTF-8"?>
<svg width="18px" height="18px" viewBox="0 0 18 18" version="1.1" xmlns="http://www.w3.org/2000/svg" xmlns:xlink="http://www.w3.org/1999/xlink">
    <title>F98B99D2-1932-4762-A2FE-69D129E843D7</title>
    <g id="Page-1" stroke="none" stroke-width="1" fill="none" fill-rule="evenodd">
        <g id="LPB-Icons" transform="translate(-1111.000000, -459.000000)" fill="#363139" fill-rule="nonzero" stroke="#363139" stroke-width="0.1">
            <g id="recycle" transform="translate(1112.000000, 460.000000)">
                <path d="M8.1981797,0.827707023 C9.49471875,0.827707023 10.7933203,1.19573437 11.9536055,1.89208595 C12.6895312,2.3348789 13.3508203,2.8913672 13.9125937,3.5411836 L11.9742305,3.4772461 C11.746582,3.46964063 11.5559297,3.64817577 11.5484531,3.87595313 C11.5409765,4.10360155 11.7193828,4.2943828 11.9471601,4.30173048 L14.6290547,4.39028905 C14.7830976,4.45371095 14.9602149,4.41826173 15.0780351,4.3003125 C15.1957265,4.18236327 15.230918,4.0052461 15.1672383,3.85120313 L15.0789375,1.16995312 C15.0737812,0.942175773 14.8849336,0.761707023 14.6571562,0.766734375 C14.4295078,0.771890625 14.2487812,0.960738273 14.2539375,1.18838673 C14.2539375,1.19148048 14.2539375,1.1943164 14.2541953,1.19728125 L14.3052422,2.74415625 C13.7377969,2.13778125 13.0892695,1.6127461 12.3780937,1.18439062 C11.0896758,0.411339852 9.64425,0.0027070296 8.1981797,0.0027070296 C5.8881797,0.0027070296 3.75839063,0.955195296 2.20197655,2.68460155 C0.823195296,4.21665235 1.87583282e-15,6.27876563 1.87583282e-15,8.20088673 C1.87583282e-15,8.42866405 0.18459375,8.61338673 0.4125,8.61338673 C0.64040625,8.61338673 0.825,8.42866405 0.825,8.20088673 C0.825,6.47702345 1.56891798,4.62116015 2.8151836,3.23657812 C4.21330077,1.68338673 6.12485155,0.827707023 8.1981797,0.827707023 Z" id="Path"></path>
                <path d="M16.0875,7.78838673 C15.8595938,7.78838673 15.675,7.97298048 15.675,8.20088673 C15.675,9.9246211 14.931082,11.7806133 13.6848164,13.1653242 C12.2866992,14.7185156 10.3751485,15.5739375 8.3018203,15.5739375 C7.00528125,15.5739375 5.7066797,15.206168 4.54639452,14.5098164 C3.81046875,14.0668945 3.1491797,13.5104063 2.58740625,12.8607188 L4.52576952,12.9246563 C4.75341798,12.9320039 4.9440703,12.7534688 4.95154688,12.5258203 C4.95902345,12.2981719 4.7806172,12.1075195 4.55283985,12.099914 L1.8709453,12.0114844 C1.71690235,11.9480625 1.53978515,11.9836406 1.42196485,12.101461 C1.30427345,12.2194101 1.26908202,12.3963985 1.33276173,12.5504414 L1.4210625,15.2316914 C1.42621875,15.4595976 1.6150664,15.6401953 1.84284375,15.635039 C2.0704922,15.6300117 2.25121875,15.441164 2.2460625,15.2133867 C2.2460625,15.2104219 2.2460625,15.207586 2.2458047,15.2044922 L2.1947578,13.6576172 C2.76220313,14.2641211 3.41073048,14.7888985 4.12190625,15.2175117 C5.41032423,15.9906914 6.85575,16.3991953 8.3018203,16.3991953 C10.6118203,16.3991953 12.7416094,15.446836 14.2980235,13.7174297 C15.6768047,12.18525 16.5,10.1231367 16.5,8.20088673 C16.5,7.97298048 16.3154063,7.78838673 16.0875,7.78838673 L16.0875,7.78838673 Z" id="Path"></path>
            </g>
        </g>
    </g>
</svg>