<?xml version="1.0" encoding="UTF-8"?>
<svg width="14" height="16" viewBox="0 0 14 16" xmlns="http://www.w3.org/2000/svg" xmlns:xlink="http://www.w3.org/1999/xlink">
    <path d="M6.41666667,0.5 C3.2406152,0.5 0.666666667,3.07394853 0.666666667,6.25 C0.666666667,9.42605147 3.2406152,12 6.41666667,12 C9.59271813,12 12.1666667,9.42605147 12.1666667,6.25 C12.1666667,3.07394853 9.59271813,0.5 6.41666667,0.5 Z M6.41666667,1.5 C9.04043338,1.5 11.1666667,3.62623328 11.1666667,6.25 C11.1666667,8.87376672 9.04043338,11 6.41666667,11 C3.79289995,11 1.66666667,8.87376672 1.66666667,6.25 C1.66666667,3.62623328 3.79289995,1.5 6.41666667,1.5 Z" id="Stroke-1" fill-rule="nonzero"></path>
    <polygon id="Stroke-3" fill-rule="nonzero" points="8.68993089 10.4602063 9.55663368 9.93764154 13.5347401 15.089602 12.7437314 15.7014068"></polygon>
</svg>
