<?xml version="1.0" encoding="UTF-8"?>
<svg width="22px" height="23px" viewBox="0 0 22 23" version="1.1" xmlns="http://www.w3.org/2000/svg" xmlns:xlink="http://www.w3.org/1999/xlink">
    <title>ED0FA1E5-3A0D-4A9A-83F1-FFB22AB2C441</title>
    <g id="Page-1" stroke="none" stroke-width="1" fill="none" fill-rule="evenodd">
        <g id="LPB-Icons" transform="translate(-1039.000000, -526.000000)" fill="#363139" fill-rule="nonzero" stroke="#363139" stroke-width="0.15">
            <g id="express-delivery" transform="translate(1040.000000, 527.000000)">
                <polygon id="XMLID_1476_" points="9.6768 10.4256 10.2528 10.4256 10.2528 20.5632 9.6768 20.5632"></polygon>
                <path d="M9.9648,10.7136 C9.91872,10.7136 9.87264,10.70208 9.83232,10.67904 L0.15552,5.61024 L0.42048,5.0976 L9.9648,10.10304 L19.50912,5.10336 L19.77408,5.616 L10.09728,10.6848 C10.05696,10.70208 10.01088,10.7136 9.9648,10.7136 Z" id="XMLID_1475_"></path>
                <path d="M13.50144,12.68352 C13.41504,12.63168 13.3632,12.53952 13.3632,12.4416 L13.3632,8.6688 L3.62304,3.8016 L3.88224,3.28896 L13.78368,8.2368 C13.8816,8.28288 13.94496,8.38656 13.94496,8.496 L13.94496,11.9808 L16.13376,10.90944 L16.13376,7.26336 C10.5906723,4.48329187 7.72987233,3.04137187 7.55136,2.9376 C7.28359151,2.78194219 7.55136,2.31285559 7.81056,2.42496 C7.98336,2.49969628 10.89792,3.96849628 16.55424,6.83136 C16.65216,6.8832 16.70976,6.98112 16.70976,7.09056 L16.70976,11.09376 C16.70976,11.2032 16.6464,11.30688 16.54848,11.35296 L13.78368,12.70656 C13.7376,12.71808 13.69728,12.7296 13.6512,12.7296 C13.59936,12.7296 13.54752,12.71232 13.50144,12.68352 Z" id="XMLID_1473_"></path>
                <path d="M9.9648,20.8512 C9.91872,20.8512 9.87264,20.83968 9.83232,20.81664 L6.98112,19.3248 L7.24608,18.81216 L9.9648,20.23488 L19.3536,15.3216 L19.3536,5.5296 L9.9648,0.61056 L0.576,5.5296 L0.576,15.3216 L7.24608,18.81216 L6.98112,19.3248 L0.15552,15.7536 C0.06336,15.70176 -1.63709046e-15,15.60384 -1.63709046e-15,15.50016 L-1.63709046e-15,5.3568 C-1.63709046e-15,5.24736 0.0576,5.14944 0.15552,5.10336 L9.83232,0.03456 C9.91872,-0.01152 10.01664,-0.01152 10.09728,0.03456 L19.77408,5.10336 C19.86624,5.1552 19.9296,5.25312 19.9296,5.3568 L19.9296,15.4944 C19.9296,15.60384 19.872,15.70176 19.77408,15.74784 L10.09728,20.81664 C10.05696,20.83968 10.01088,20.8512 9.9648,20.8512 Z" id="XMLID_685_"></path>
            </g>
        </g>
    </g>
</svg>