<?xml version="1.0" encoding="UTF-8" standalone="no"?>
<!DOCTYPE svg PUBLIC "-//W3C//DTD SVG 1.1//EN" "http://www.w3.org/Graphics/SVG/1.1/DTD/svg11.dtd">
<svg width="100%" height="100%" viewBox="0 0 21 18" version="1.1" xmlns="http://www.w3.org/2000/svg" xmlns:xlink="http://www.w3.org/1999/xlink" xml:space="preserve" xmlns:serif="http://www.serif.com/" style="fill-rule:evenodd;clip-rule:evenodd;stroke-linejoin:round;stroke-miterlimit:2;">
    <path d="M19.46,10.432C20.482,8.93 21,7.486 21,6.138C21,2.754 18.345,0 15.081,0L15.049,0C13.314,0 11.68,0.788 10.562,2.165L10.5,2.242L10.437,2.164C9.333,0.786 7.715,0 5.99,0C5.966,0 5.943,0 5.92,0C2.655,0 0,2.754 0,6.138C0,7.466 0.518,8.899 1.54,10.396C2.367,11.607 3.523,12.864 4.977,14.13C7.592,16.407 10.245,17.911 10.27,17.925L10.277,17.93C10.413,18.023 10.587,18.023 10.723,17.93L10.73,17.925C10.756,17.911 13.427,16.411 16.023,14.161C17.477,12.901 18.633,11.646 19.46,10.432" style="fill-rule:nonzero;"/>
</svg>
