<?xml version="1.0" encoding="UTF-8"?>
<svg width="21px" height="20px" viewBox="0 0 21 20" version="1.1" xmlns="http://www.w3.org/2000/svg" xmlns:xlink="http://www.w3.org/1999/xlink">
    <title>648CDA0B-97EB-4016-83D2-EEA9ABD64088</title>
    <g id="01.-PDP" stroke="none" stroke-width="1" fill="none" fill-rule="evenodd">
        <g id="D_01_PDP_03_Cosmetic_Wishlist-Prompt_V02" transform="translate(-942.000000, -448.000000)" fill="#363139">
            <g id="Icon/Cross" transform="translate(942.000000, 447.000000)">
                <g id="Close" transform="translate(0.947917, 1.000000)">
                    <path d="M10.2502168,-2.87478317 C10.5953948,-2.87478317 10.8752168,-2.59496114 10.8752168,-2.24978317 L10.8752168,22.5002168 C10.8752168,22.8453948 10.5953948,23.1252168 10.2502168,23.1252168 C9.90503886,23.1252168 9.62521683,22.8453948 9.62521683,22.5002168 L9.62521683,-2.24978317 C9.62521683,-2.59496114 9.90503886,-2.87478317 10.2502168,-2.87478317 Z" id="Rectangle" transform="translate(10.250217, 10.125217) rotate(-315.000000) translate(-10.250217, -10.125217) "></path>
                    <path d="M10.125,-3 C10.470178,-3 10.75,-2.72017797 10.75,-2.375 L10.75,22.375 C10.75,22.720178 10.470178,23 10.125,23 C9.77982203,23 9.5,22.720178 9.5,22.375 L9.5,-2.375 C9.5,-2.72017797 9.77982203,-3 10.125,-3 Z" id="Rectangle-Copy" transform="translate(10.125000, 10.000000) rotate(-45.000000) translate(-10.125000, -10.000000) "></path>
                </g>
            </g>
        </g>
    </g>
</svg>