<?xml version="1.0" encoding="UTF-8"?>
<svg width="21px" height="21px" viewBox="0 0 21 21" version="1.1" xmlns="http://www.w3.org/2000/svg" xmlns:xlink="http://www.w3.org/1999/xlink">
    <title>DE70D32F-9AF9-4AE2-9952-319F77F02399</title>
    <g id="Page-1" stroke="none" stroke-width="1" fill="none" fill-rule="evenodd">
        <g id="LPB-Icons" transform="translate(-1316.000000, -528.000000)" fill="#363139" fill-rule="nonzero">
            <g id="cookies" transform="translate(1316.000000, 528.000000)">
                <path d="M20.1516138,9.67150345 C20.0672221,9.38160552 19.8098097,9.17751172 19.5170869,9.16374069 C16.6258759,8.98224552 16.0347807,7.53204966 15.9161379,6.9225931 C15.8596414,6.6044469 15.5831614,6.36327724 15.2607779,6.3491531 C15.0792828,6.34032552 14.9083807,6.3177269 14.7395972,6.28806621 C14.1894621,2.68676414 11.0906262,1.25447545e-15 7.41517241,1.25447545e-15 C3.32623448,1.25447545e-15 1.25447545e-15,3.32658759 1.25447545e-15,7.41517241 C1.25447545e-15,10.0807503 1.43006897,12.5298759 3.73971862,13.8515421 C4.59528828,17.7010759 8.04157793,20.48 12.0055172,20.48 C16.6781352,20.48 20.48,16.6781352 20.48,12.0055172 C20.48,11.2117407 20.3694786,10.4267917 20.1516138,9.67150345 Z M0.706206897,7.41517241 C0.706206897,3.71570759 3.71570759,0.706206897 7.41517241,0.706206897 C10.6354759,0.706206897 13.3692028,2.98372414 13.991371,6.08644414 C12.8600276,5.64506483 12.2721103,4.73441103 11.9716193,3.99960276 C11.8547421,3.71782621 11.5704938,3.53809655 11.2544662,3.56422621 C6.92329931,3.94381241 3.53103448,7.65175172 3.53103448,12.0055172 C3.53103448,12.3091862 3.54904276,12.6139145 3.58152828,12.9168772 C1.79305931,11.6690097 0.706206897,9.62418759 0.706206897,7.41517241 Z M12.0055172,19.7737931 C8.32158897,19.7737931 5.12,17.1576497 4.3926069,13.5528166 C4.28950069,13.0432883 4.23724138,12.5231669 4.23724138,12.0055172 C4.23724138,8.01438897 7.34667034,4.61541517 11.318731,4.26866759 C11.7237407,5.25841655 12.5761324,6.52146759 14.3328221,6.92788966 C14.3335283,6.92824276 14.3345876,6.92824276 14.3352938,6.92859586 C14.3402372,6.92965517 14.3444745,6.93142069 14.3494179,6.93248 C14.6315476,6.99992276 14.9182676,7.04017655 15.2219366,7.05218207 C15.3730648,7.82830345 16.0898648,9.65632 19.4736552,9.86853517 C19.6728055,10.5588524 19.7737931,11.277771 19.7737931,12.0055172 C19.7737931,16.2890152 16.2890152,19.7737931 12.0055172,19.7737931 L12.0055172,19.7737931 Z" id="Shape"></path>
                <path d="M16.5958621,9.88689655 C15.8169159,9.88689655 15.1834483,10.5203641 15.1834483,11.2993103 C15.1834483,12.0782566 15.8169159,12.7117241 16.5958621,12.7117241 C17.3748083,12.7117241 18.0082759,12.0782566 18.0082759,11.2993103 C18.0082759,10.5203641 17.3748083,9.88689655 16.5958621,9.88689655 Z M16.5958621,12.0055172 C16.206389,12.0055172 15.8896552,11.6887834 15.8896552,11.2993103 C15.8896552,10.9098372 16.206389,10.5931034 16.5958621,10.5931034 C16.9853352,10.5931034 17.302069,10.9098372 17.302069,11.2993103 C17.302069,11.6887834 16.9853352,12.0055172 16.5958621,12.0055172 Z" id="Shape"></path>
                <path d="M10.5931034,8.82758621 C10.5931034,8.04864 9.95963586,7.41517241 9.18068966,7.41517241 C8.40174345,7.41517241 7.76827586,8.04864 7.76827586,8.82758621 C7.76827586,9.60653241 8.40174345,10.24 9.18068966,10.24 C9.95963586,10.24 10.5931034,9.60653241 10.5931034,8.82758621 Z M8.47448276,8.82758621 C8.47448276,8.4381131 8.79121655,8.12137931 9.18068966,8.12137931 C9.57016276,8.12137931 9.88689655,8.4381131 9.88689655,8.82758621 C9.88689655,9.21705931 9.57016276,9.5337931 9.18068966,9.5337931 C8.79121655,9.5337931 8.47448276,9.21705931 8.47448276,8.82758621 Z" id="Shape"></path>
                <path d="M11.6524138,11.2993103 C11.0683807,11.2993103 10.5931034,11.7745876 10.5931034,12.3586207 C10.5931034,12.9426538 11.0683807,13.417931 11.6524138,13.417931 C12.2364469,13.417931 12.7117241,12.9426538 12.7117241,12.3586207 C12.7117241,11.7745876 12.2364469,11.2993103 11.6524138,11.2993103 Z M11.6524138,12.7117241 C11.4578538,12.7117241 11.2993103,12.5535338 11.2993103,12.3586207 C11.2993103,12.1637076 11.4578538,12.0055172 11.6524138,12.0055172 C11.8469738,12.0055172 12.0055172,12.1637076 12.0055172,12.3586207 C12.0055172,12.5535338 11.8469738,12.7117241 11.6524138,12.7117241 Z" id="Shape"></path>
                <path d="M5.29655172,4.23724138 C5.88058483,4.23724138 6.35586207,3.76196414 6.35586207,3.17793103 C6.35586207,2.59389793 5.88058483,2.11862069 5.29655172,2.11862069 C4.71251862,2.11862069 4.23724138,2.59389793 4.23724138,3.17793103 C4.23724138,3.76196414 4.71251862,4.23724138 5.29655172,4.23724138 Z M5.29655172,2.82482759 C5.49111172,2.82482759 5.64965517,2.98301793 5.64965517,3.17793103 C5.64965517,3.37284414 5.49111172,3.53103448 5.29655172,3.53103448 C5.10199172,3.53103448 4.94344828,3.37284414 4.94344828,3.17793103 C4.94344828,2.98301793 5.10199172,2.82482759 5.29655172,2.82482759 Z" id="Shape"></path>
                <path d="M14.4772414,14.1241379 C13.8932083,14.1241379 13.417931,14.5994152 13.417931,15.1834483 C13.417931,15.7674814 13.8932083,16.2427586 14.4772414,16.2427586 C15.0612745,16.2427586 15.5365517,15.7674814 15.5365517,15.1834483 C15.5365517,14.5994152 15.0612745,14.1241379 14.4772414,14.1241379 Z M14.4772414,15.5365517 C14.2826814,15.5365517 14.1241379,15.3783614 14.1241379,15.1834483 C14.1241379,14.9885352 14.2826814,14.8303448 14.4772414,14.8303448 C14.6718014,14.8303448 14.8303448,14.9885352 14.8303448,15.1834483 C14.8303448,15.3783614 14.6718014,15.5365517 14.4772414,15.5365517 Z" id="Shape"></path>
                <path d="M10.24,15.1834483 C9.46105379,15.1834483 8.82758621,15.8169159 8.82758621,16.5958621 C8.82758621,17.3748083 9.46105379,18.0082759 10.24,18.0082759 C11.0189462,18.0082759 11.6524138,17.3748083 11.6524138,16.5958621 C11.6524138,15.8169159 11.0189462,15.1834483 10.24,15.1834483 Z M10.24,17.302069 C9.8505269,17.302069 9.5337931,16.9853352 9.5337931,16.5958621 C9.5337931,16.206389 9.8505269,15.8896552 10.24,15.8896552 C10.6294731,15.8896552 10.9462069,16.206389 10.9462069,16.5958621 C10.9462069,16.9853352 10.6294731,17.302069 10.24,17.302069 Z" id="Shape"></path>
                <circle id="Oval" cx="13.417931" cy="9.18068966" r="1"></circle>
                <circle id="Oval" cx="8.12137931" cy="2.82482759" r="1"></circle>
                <circle id="Oval" cx="2.11862069" cy="6.00275862" r="1"></circle>
                <circle id="Oval" cx="7.41517241" cy="12.3586207" r="1"></circle>
                <circle id="Oval" cx="4.23724138" cy="5.64965517" r="1"></circle>
                <circle id="Oval" cx="3.17793103" cy="7.76827586" r="1"></circle>
            </g>
        </g>
    </g>
</svg>