<?xml version="1.0" encoding="UTF-8"?>
<svg width="40px" height="40px" viewBox="0 0 40 40" version="1.1" xmlns="http://www.w3.org/2000/svg" xmlns:xlink="http://www.w3.org/1999/xlink">
    <title>9DB00B77-5D97-4009-9AC4-3E1DDAB1359A</title>
    <g id="13.-My-Account" stroke="none" stroke-width="1" fill="none" fill-rule="evenodd">
        <g id="D_13_My-Account_00---Sign-In-/-Register_active" transform="translate(-738.000000, -685.000000)">
            <g id="Diamond" transform="translate(738.000000, 685.000000)">
                <circle id="Oval" fill="#DEBF9B" cx="20" cy="20" r="20"></circle>
                <g id="Group-5-Copy-2" transform="translate(11.000000, 11.500000)">
                    <path d="M0.460105546,4.25537461 C0.74130991,4.25537461 0.894678425,4.25537461 1.04804694,4.25537461 C2.2542929,4.25537461 3.46174649,4.22650075 4.66678482,4.2690986 C5.15621843,4.28638727 5.36686293,4.13292806 5.49832165,3.64813239 C5.76227422,2.67408523 6.09506147,1.72000024 6.42077548,0.689809462 C5.4020566,0.689809462 4.44596176,0.686957723 3.48986692,0.695691174 C3.41947957,0.696404109 3.33339308,0.766628186 3.28198272,0.828831747 C2.36970745,1.93120717 1.46157262,3.03750374 0.460105546,4.25537461 L0.460105546,4.25537461 Z M11.6441034,0.688561826 C11.9953501,1.78897668 12.3409037,2.82843561 12.6533338,3.87858857 C12.7425256,4.17855588 12.8812301,4.26410806 13.1707153,4.26107808 C14.5191161,4.24735409 15.867862,4.25573107 17.2162628,4.25305757 C17.3204637,4.25287933 17.4248371,4.22757015 17.5918345,4.20582564 C16.638845,3.05122774 15.7320903,1.94867408 14.8177448,0.852893297 C14.7506353,0.772688132 14.6284926,0.696760576 14.5311924,0.695512941 C13.588554,0.683749516 12.645743,0.688561826 11.6441034,0.688561826 L11.6441034,0.688561826 Z M12.492547,4.22026257 C12.1252562,3.07689339 11.7781499,1.97113152 11.4043034,0.874994275 C11.3716975,0.77981748 11.1651934,0.696225875 11.0383927,0.694621772 C9.8904578,0.680719544 8.74235041,0.686423022 7.59441554,0.686601256 C6.70819049,0.686601256 6.70577524,0.685888321 6.43371433,1.53410249 C6.15199241,2.41208169 5.87527352,3.29184323 5.58061275,4.22026257 L12.492547,4.22026257 Z M0.420081366,4.513457 C3.1812322,8.29290259 5.87458344,11.9793102 8.56793469,15.6657178 C8.19495075,14.2006368 7.76331067,12.7699549 7.33236067,11.3389165 C6.68438301,9.18656635 6.04071829,7.03279033 5.38014681,4.88453956 C5.33563717,4.73963557 5.16639699,4.53110214 5.05270762,4.5293198 C3.54817801,4.50543649 2.04347589,4.513457 0.420081366,4.513457 L0.420081366,4.513457 Z M9.47072147,15.5402412 C9.5064327,15.5534305 9.54231644,15.5664416 9.57802767,15.5798091 C12.252747,11.9174631 14.9276388,8.25529527 17.6601516,4.51416994 C16.0222656,4.51416994 14.5025544,4.50739706 12.9833608,4.52949804 C12.8833003,4.53074567 12.7368325,4.73535796 12.6950832,4.87259791 C11.8801081,7.54236048 11.0778993,10.2162224 10.2725852,12.889015 C10.0060449,13.7730541 9.73795187,14.6565586 9.47072147,15.5402412 L9.47072147,15.5402412 Z M12.5056584,4.53858795 L5.56284339,4.53858795 C6.71681639,8.37168188 7.85767803,12.1618215 9.03425089,16.0706647 C10.2118589,12.1587915 11.3506503,8.37595949 12.5056584,4.53858795 L12.5056584,4.53858795 Z M0,4.39172339 C1.04390651,3.12412532 2.0598651,1.87845 3.09549074,0.650419815 C3.20779997,0.517457475 3.43328102,0.419607175 3.60666162,0.41889424 C7.23937346,0.405704946 10.8720853,0.406239647 14.5044521,0.418003072 C14.6661015,0.418537773 14.8772635,0.505694051 14.9809469,0.62849707 C15.9515332,1.77863913 16.8990022,2.94909983 17.8654481,4.10298479 C18.0395187,4.31098352 18.0438317,4.45588752 17.8833899,4.67493673 C14.9949208,8.61657498 12.1131799,12.5637385 9.23023135,16.5096543 C9.18002861,16.5784525 9.13275867,16.6495678 9.04736226,16.7727273 C6.00690476,12.6118616 3.0156149,8.51854645 0,4.39172339 L0,4.39172339 Z" id="Fill-1" fill="#363139"></path>
                    <path d="M0.460105546,4.25537461 C0.74130991,4.25537461 0.894678425,4.25537461 1.04804694,4.25537461 C2.2542929,4.25537461 3.46174649,4.22650075 4.66678482,4.2690986 C5.15621843,4.28638727 5.36686293,4.13292806 5.49832165,3.64813239 C5.76227422,2.67408523 6.09506147,1.72000024 6.42077548,0.689809462 C5.4020566,0.689809462 4.44596176,0.686957723 3.48986692,0.695691174 C3.41947957,0.696404109 3.33339308,0.766628186 3.28198272,0.828831747 C2.36970745,1.93120717 1.46157262,3.03750374 0.460105546,4.25537461 Z M11.6441034,0.688561826 C11.9953501,1.78897668 12.3409037,2.82843561 12.6533338,3.87858857 C12.7425256,4.17855588 12.8812301,4.26410806 13.1707153,4.26107808 C14.5191161,4.24735409 15.867862,4.25573107 17.2162628,4.25305757 C17.3204637,4.25287933 17.4248371,4.22757015 17.5918345,4.20582564 C16.638845,3.05122774 15.7320903,1.94867408 14.8177448,0.852893297 C14.7506353,0.772688132 14.6284926,0.696760576 14.5311924,0.695512941 C13.588554,0.683749516 12.645743,0.688561826 11.6441034,0.688561826 Z M12.492547,4.22026257 C12.1252562,3.07689339 11.7781499,1.97113152 11.4043034,0.874994275 C11.3716975,0.77981748 11.1651934,0.696225875 11.0383927,0.694621772 C9.8904578,0.680719544 8.74235041,0.686423022 7.59441554,0.686601256 C6.70819049,0.686601256 6.70577524,0.685888321 6.43371433,1.53410249 C6.15199241,2.41208169 5.87527352,3.29184323 5.58061275,4.22026257 L12.492547,4.22026257 Z M0.420081366,4.513457 C3.1812322,8.29290259 5.87458344,11.9793102 8.56793469,15.6657178 C8.19495075,14.2006368 7.76331067,12.7699549 7.33236067,11.3389165 C6.68438301,9.18656635 6.04071829,7.03279033 5.38014681,4.88453956 C5.33563717,4.73963557 5.16639699,4.53110214 5.05270762,4.5293198 C3.54817801,4.50543649 2.04347589,4.513457 0.420081366,4.513457 Z M9.47072147,15.5402412 C9.5064327,15.5534305 9.54231644,15.5664416 9.57802767,15.5798091 C12.252747,11.9174631 14.9276388,8.25529527 17.6601516,4.51416994 C16.0222656,4.51416994 14.5025544,4.50739706 12.9833608,4.52949804 C12.8833003,4.53074567 12.7368325,4.73535796 12.6950832,4.87259791 C11.8801081,7.54236048 11.0778993,10.2162224 10.2725852,12.889015 C10.0060449,13.7730541 9.73795187,14.6565586 9.47072147,15.5402412 Z M12.5056584,4.53858795 L5.56284339,4.53858795 C6.71681639,8.37168188 7.85767803,12.1618215 9.03425089,16.0706647 C10.2118589,12.1587915 11.3506503,8.37595949 12.5056584,4.53858795 Z M0,4.39172339 C1.04390651,3.12412532 2.0598651,1.87845 3.09549074,0.650419815 C3.20779997,0.517457475 3.43328102,0.419607175 3.60666162,0.41889424 C7.23937346,0.405704946 10.8720853,0.406239647 14.5044521,0.418003072 C14.6661015,0.418537773 14.8772635,0.505694051 14.9809469,0.62849707 C15.9515332,1.77863913 16.8990022,2.94909983 17.8654481,4.10298479 C18.0395187,4.31098352 18.0438317,4.45588752 17.8833899,4.67493673 C14.9949208,8.61657498 12.1131799,12.5637385 9.23023135,16.5096543 C9.18002861,16.5784525 9.13275867,16.6495678 9.04736226,16.7727273 C6.00690476,12.6118616 3.0156149,8.51854645 0,4.39172339 Z" id="Stroke-3" stroke="#363139" stroke-width="0.5"></path>
                </g>
            </g>
        </g>
    </g>
</svg>