<?xml version="1.0" encoding="UTF-8" standalone="no"?>
<!DOCTYPE svg PUBLIC "-//W3C//DTD SVG 1.1//EN" "http://www.w3.org/Graphics/SVG/1.1/DTD/svg11.dtd">
<svg width="100%" height="100%" viewBox="0 0 160 160" version="1.1" xmlns="http://www.w3.org/2000/svg" xmlns:xlink="http://www.w3.org/1999/xlink" xml:space="preserve" xmlns:serif="http://www.serif.com/">
    <style>
        path {
            fill: black;
        }

        @media (prefers-color-scheme: dark) {
            path {
                fill: white;
            }
        }
    </style>
    <path d="M180,109C183.022,108.683 186.051,108.051 189.063,108.118C193.825,108.225 196.156,105.893 196.811,101.482C197.03,100.01 197.039,98.498 197.039,97.003C197.052,72.19 197.056,47.375 197.029,22.562C197.027,20.741 196.918,18.894 196.598,17.106C195.954,13.505 193.81,11.579 190.018,11.646C186.933,11.701 183.847,11.657 180.485,11.657C180.898,10.763 181.008,10.322 181.114,10.323C198.909,10.548 216.723,10.4 234.491,11.227C243.467,11.644 251.615,15.474 257.761,22.428C267.017,32.899 265.339,47.305 253.896,55.561C246.206,61.11 237.412,63.239 228.017,63.195C222.736,63.17 217.454,63.19 211.856,63.19C211.856,76.793 211.733,89.742 211.932,102.687C211.99,106.497 214.766,107.942 218.432,108.084C221.628,108.209 224.81,108.681 227.998,108.999C212,109 196,109 180,109ZM211.676,61.955C218.03,61.955 223.686,62.303 229.281,61.876C238.525,61.173 243.622,56.959 245.765,47.911C246.859,43.293 247.164,38.359 247.003,33.597C246.522,19.391 238.317,11.681 224.182,11.639C221.354,11.63 218.526,11.681 215.699,11.66C213.068,11.64 211.668,12.809 211.67,15.535C211.682,30.815 211.676,46.098 211.676,61.955Z" transform="matrix(1,0,0,1,-120,0)" />
    <path d="M78.939,109C54.951,109 30.96,109.016 6.968,108.957C5.645,108.954 4.323,108.333 3,108C5.998,108.016 8.996,108.085 11.992,108.036C17.742,107.943 19.745,106.018 20.022,100.23C20.149,97.572 20.049,94.902 20.049,92.238C20.049,68.257 20.075,44.276 20.032,20.295C20.02,13.568 18.072,11.657 11.449,11.657C8.633,11.656 5.816,11.879 3,12L3,10L50.213,10C50.238,10.547 50.264,11.094 50.289,11.641C47.463,11.641 44.636,11.713 41.813,11.625C37.236,11.481 35.102,13.865 34.753,18.203C34.686,19.032 34.635,19.866 34.635,20.697C34.631,47.022 34.606,73.347 34.655,99.673C34.668,106.772 36.095,107.503 43.184,108.144C59.146,109.585 70.553,104.125 78.939,94.343L78.939,109Z"/>
</svg>
