<?xml version="1.0" encoding="UTF-8"?>
<svg width="17px" height="17px" viewBox="0 0 17 17" version="1.1" xmlns="http://www.w3.org/2000/svg" xmlns:xlink="http://www.w3.org/1999/xlink">
    <title>2910AC17-9B80-4848-B583-1B8129177EA9</title>
    <g id="02.PLP" stroke="none" stroke-width="1" fill="none" fill-rule="evenodd">
        <g id="D_02_PLP_01_Grid-View_2" transform="translate(-1194.000000, -391.000000)" fill="#363139" fill-rule="nonzero">
            <g id="CTA/Refine" transform="translate(1130.000000, 389.000000)">
                <g id="filter-(1)" transform="translate(64.000000, 2.000000)">
                    <path d="M6.93592067,8.42878403 L16.5251463,8.42878403 L16.5251463,8.82216387 C16.5251463,9.47393693 17.0419893,10.0023034 17.6795474,10.0023034 L19.2187489,10.0023034 C19.8563071,10.0023034 20.3731501,9.47393693 20.3731501,8.82216387 L20.3731501,8.42878403 L22.1663199,8.42878403 C22.3788393,8.42878403 22.5511203,8.25266187 22.5511203,8.03540419 C22.5511203,7.8181465 22.3788393,7.64202435 22.1663199,7.64202435 L20.3731501,7.64202435 L20.3731501,7.24864451 C20.3731501,6.59687145 19.8563071,6.06850499 19.2187489,6.06850499 L17.6795474,6.06850499 C17.0419893,6.06850499 16.5251463,6.59687145 16.5251463,7.24864451 L16.5251463,7.64202435 L6.93592067,7.64202435 C6.72340128,7.64202435 6.55112028,7.8181465 6.55112028,8.03540419 C6.55112028,8.25266187 6.72340128,8.42878403 6.93592067,8.42878403 Z" id="Path" transform="translate(14.551120, 8.035404) rotate(-270.000000) translate(-14.551120, -8.035404) "></path>
                    <path d="M9.57927236,7.64989194 L6.20277356,7.64989194 L6.20277356,7.2565121 C6.20277356,6.60473904 5.68741787,6.07637258 5.05169442,6.07637258 L3.51692224,6.07637258 C2.88119878,6.07637258 2.3658431,6.60473904 2.3658431,7.2565121 L2.3658431,7.64989194 L-5.65334155,7.64989194 C-5.86524937,7.64989194 -6.0370346,7.8260141 -6.0370346,8.04327178 C-6.0370346,8.26052947 -5.86524937,8.43665162 -5.65334155,8.43665162 L2.3658431,8.43665162 L2.3658431,8.83003146 C2.3658431,9.48180452 2.88119878,10.010171 3.51692224,10.010171 L5.05169442,10.010171 C5.68741787,10.010171 6.20277356,9.48180452 6.20277356,8.83003146 L6.20277356,8.43665162 L9.57927236,8.43665162 C9.79118017,8.43665162 9.9629654,8.26052947 9.9629654,8.04327178 C9.9629654,7.8260141 9.79118017,7.64989194 9.57927236,7.64989194 Z" id="Path" transform="translate(1.962965, 8.043272) rotate(-270.000000) translate(-1.962965, -8.043272) "></path>
                    <path d="M5.16831382,10.049509 L6.70308601,10.049509 C7.33880946,10.049509 7.85416514,9.52114251 7.85416514,8.86936945 L7.85416514,8.47598961 L15.8733498,8.47598961 C16.0852576,8.47598961 16.2570428,8.29986745 16.2570428,8.08260977 C16.2570428,7.86535208 16.0852576,7.68922993 15.8733498,7.68922993 L7.85416514,7.68922993 L7.85416514,7.29585009 C7.85416514,6.64407703 7.33880946,6.11571057 6.70308601,6.11571057 L5.16831382,6.11571057 C4.53259037,6.11571057 4.01723469,6.64407703 4.01723469,7.29585009 L4.01723469,7.68922993 L0.640735887,7.68922993 C0.428828069,7.68922993 0.257042842,7.86535208 0.257042842,8.08260977 C0.257042842,8.29986745 0.428828069,8.47598961 0.640735887,8.47598961 L4.01723469,8.47598961 L4.01723469,8.86936945 C4.01723469,9.52114251 4.53259037,10.049509 5.16831382,10.049509 Z" id="Path" transform="translate(8.257043, 8.082610) rotate(-270.000000) translate(-8.257043, -8.082610) "></path>
                </g>
            </g>
        </g>
    </g>
</svg>