<?xml version="1.0" encoding="UTF-8"?>
<svg width="16px" height="22px" viewBox="0 0 16 22" version="1.1" xmlns="http://www.w3.org/2000/svg" xmlns:xlink="http://www.w3.org/1999/xlink">
    <title>ACAE075D-150C-43B9-B8E9-D19670DD2037</title>
    <g id="Page-1" stroke="none" stroke-width="1" fill="none" fill-rule="evenodd">
        <g id="LPB-Icons" transform="translate(-1392.000000, -457.000000)" fill="#363139" fill-rule="nonzero" stroke="#363139" stroke-width="0.1">
            <g id="bottle" transform="translate(1393.000000, 458.000000)">
                <path d="M13,7.33333333 L8.66666667,7.33333333 L8.66666667,6 L9,6 C9.18409492,6 9.33333333,5.85076158 9.33333333,5.66666667 L9.33333333,4.33333333 C9.33333333,4.14923842 9.18409492,4 9,4 L8.66666667,4 L8.66666667,3.33333333 L10,3.33333333 C10.0658265,3.33322919 10.1301664,3.31375331 10.185,3.27733333 L11.185,2.61066667 C11.2776899,2.54882514 11.33335,2.44475951 11.3333333,2.33333333 L11.3333333,1 C11.33335,0.888573822 11.2776899,0.784508195 11.185,0.722666667 L10.185,0.056 C10.1301664,0.0195800278 10.0658265,0 10,0 L4,0 C3.93417354,0 3.86983355,0.0195800278 3.815,0.056 L2.815,0.722666667 C2.72231009,0.784508195 2.66664999,0.888573822 2.66666667,1 L2.66666667,2.33333333 C2.66664999,2.44475951 2.72231009,2.54882514 2.815,2.61066667 L3.815,3.27733333 C3.86983355,3.31375331 3.93417354,3.33322919 4,3.33333333 L5.33333333,3.33333333 L5.33333333,4 L5,4 C4.81590508,4 4.66666667,4.14923842 4.66666667,4.33333333 L4.66666667,5.66666667 C4.66666667,5.85076158 4.81590508,6 5,6 L5.33333333,6 L5.33333333,7.33333333 L1,7.33333333 C0.44771525,7.33333333 0,7.78104858 0,8.33333333 L0,19 C0,19.5522847 0.44771525,20 1,20 L13,20 C13.5522847,20 14,19.5522847 14,19 L14,8.33333333 C14,7.78104858 13.5522847,7.33333333 13,7.33333333 Z M3.33333333,2.155 L3.33333333,1.17833333 L4.1,0.666666667 L9.9,0.666666667 L10.6666667,1.17833333 L10.6666667,2.155 L9.9,2.66666667 L4.1,2.66666667 L3.33333333,2.155 Z M6,3.33333333 L8,3.33333333 L8,4 L6,4 L6,3.33333333 Z M5.33333333,4.66666667 L8.66666667,4.66666667 L8.66666667,5.33333333 L5.33333333,5.33333333 L5.33333333,4.66666667 Z M13.3333333,19 C13.3333333,19.1840949 13.1840949,19.3333333 13,19.3333333 L1,19.3333333 C0.815905083,19.3333333 0.666666667,19.1840949 0.666666667,19 L0.666666667,8.33333333 C0.666666667,8.14923842 0.815905083,8 1,8 L5.33333333,8 C5.70152317,8 6,7.70152317 6,7.33333333 L6,6 L8,6 L8,7.33333333 C8,7.70152317 8.29847683,8 8.66666667,8 L13,8 C13.1840949,8 13.3333333,8.14923842 13.3333333,8.33333333 L13.3333333,19 Z" id="Shape"></path>
                <path d="M11.3333333,10 L2.66666667,10 C2.29847683,10 2,10.2849097 2,10.6363636 L2,16.3636364 C2,16.7150903 2.29847683,17 2.66666667,17 L11.3333333,17 C11.7015232,17 12,16.7150903 12,16.3636364 L12,10.6363636 C12,10.2849097 11.7015232,10 11.3333333,10 Z M2.66666667,16.3636364 L2.66666667,10.6363636 L11.3333333,10.6363636 L11.3333333,16.3636364 L2.66666667,16.3636364 Z" id="Shape"></path>
            </g>
        </g>
    </g>
</svg>