<?xml version="1.0" encoding="UTF-8"?>
<svg width="19px" height="19px" viewBox="0 0 19 19" version="1.1" xmlns="http://www.w3.org/2000/svg" xmlns:xlink="http://www.w3.org/1999/xlink">
    <title>EAB75115-C8F4-469D-BD2C-D94A93AD7435</title>
    <g id="02.PLP" stroke="none" stroke-width="1" fill="none" fill-rule="evenodd">
        <g id="D_01_PLP_02_Fragrances_Pink-Tag" transform="translate(-1291.000000, -114.000000)" fill="#363139" fill-rule="nonzero">
            <g id="Desktop-Menu/-Closed" transform="translate(0.000000, 84.000000)">
                <g id="Icons" transform="translate(1249.000000, 30.000000)">
                    <g id="profile-(1)" transform="translate(42.000000, 0.000000)">
                        <path d="M9.03168,8.6016 C11.4069463,8.6016 13.33248,6.67606625 13.33248,4.3008 C13.33248,1.92553375 11.4069463,1.5279511e-15 9.03168,1.5279511e-15 C6.65641375,1.5279511e-15 4.73088,1.92553375 4.73088,4.3008 C4.73088,6.67606625 6.65641375,8.6016 9.03168,8.6016 L9.03168,8.6016 Z M9.03168,0.86016 C10.931893,0.86016 12.47232,2.400587 12.47232,4.3008 C12.47232,6.201013 10.931893,7.74144 9.03168,7.74144 C7.131467,7.74144 5.59104,6.201013 5.59104,4.3008 C5.59104,2.400587 7.131467,0.86016 9.03168,0.86016 Z" id="Shape"></path>
                        <path d="M9.9434496,9.46176 L8.1199104,9.46176 C5.95952905,9.46859303 3.89034692,10.3333599 2.36756599,11.8658196 C0.844785054,13.3982792 -0.00685470935,15.4728987 -4.10608599e-05,17.63328 C-4.10608599e-05,17.8708066 0.192553375,18.06336 0.43008,18.06336 L17.63328,18.06336 C17.8809705,18.0408114 18.0689063,17.8303233 18.0634796,17.5816704 C18.0538973,13.1010932 14.4240268,9.47122271 9.9434496,9.46176 L9.9434496,9.46176 Z M0.86016,17.2032 C1.0700014,13.3495002 4.25190832,10.3298969 8.1113088,10.3219197 L9.934848,10.3219197 C13.8008943,10.3207706 16.9929896,13.3428727 17.2032,17.2032 L0.86016,17.2032 Z" id="Shape"></path>
                    </g>
                </g>
            </g>
        </g>
    </g>
</svg>