<?xml version="1.0" encoding="UTF-8"?>
<svg width="19px" height="19px" viewBox="0 0 19 19" version="1.1" xmlns="http://www.w3.org/2000/svg" xmlns:xlink="http://www.w3.org/1999/xlink">
    <title>8DA680AD-326D-4748-B6EB-D16C2FC3DA04</title>
    <g id="Page-1" stroke="none" stroke-width="1" fill="none" fill-rule="evenodd">
        <g id="LPB-Icons" transform="translate(-1041.000000, -458.000000)" fill="#363139" fill-rule="nonzero" stroke="#363139" stroke-width="0.1">
            <g id="returning" transform="translate(1042.000000, 459.000000)">
                <path d="M12.32,14.9333333 L0.99008,14.9333333 C0.444266667,14.9333333 0,14.4890667 0,13.9432533 L0,4.85333333 C0,4.64725333 0.167253333,4.48 0.373333333,4.48 L14.56,4.48 C14.76608,4.48 14.9333333,4.64725333 14.9333333,4.85333333 L14.9333333,7.84 C14.9333333,8.04608 14.76608,8.21333333 14.56,8.21333333 C14.35392,8.21333333 14.1866667,8.04608 14.1866667,7.84 L14.1866667,5.22666667 L0.746666667,5.22666667 L0.746666667,13.9432533 C0.746666667,14.0776533 0.85568,14.1866667 0.99008,14.1866667 L12.32,14.1866667 C12.52608,14.1866667 12.6933333,14.35392 12.6933333,14.56 C12.6933333,14.76608 12.52608,14.9333333 12.32,14.9333333 Z" id="Path"></path>
                <path d="M14.56,5.22666667 C14.4285867,5.22666667 14.3009067,5.15722667 14.23296,5.03328 L11.9780267,0.940053333 C11.9130667,0.820586667 11.7876267,0.746666667 11.6509867,0.746666667 L3.28234667,0.746666667 C3.14570667,0.746666667 3.02026667,0.820586667 2.95530667,0.940053333 L0.700373333,5.03328 C0.601066667,5.21472 0.372586667,5.27818667 0.193386667,5.18037333 C0.0126933333,5.08106667 -0.0530133333,4.85333333 0.0462933333,4.67338667 L2.30122667,0.58016 C2.4976,0.22176 2.87392,-6.6317322e-16 3.28234667,-6.6317322e-16 L11.6517333,-6.6317322e-16 C12.06016,-6.6317322e-16 12.43648,0.22176 12.6328533,0.579413333 L14.88704,4.67264 C14.9870933,4.85333333 14.9213867,5.08032 14.7406933,5.17962667 C14.6832,5.21173333 14.6212267,5.22666667 14.56,5.22666667 Z" id="Path"></path>
                <path d="M7.46666667,5.22666667 C7.26058667,5.22666667 7.09333333,5.05941333 7.09333333,4.85333333 L7.09333333,0.373333333 C7.09333333,0.167253333 7.26058667,0 7.46666667,0 C7.67274667,0 7.84,0.167253333 7.84,0.373333333 L7.84,4.85333333 C7.84,5.05941333 7.67274667,5.22666667 7.46666667,5.22666667 Z" id="Path"></path>
                <path d="M17.5466667,17.92 C17.3405867,17.92 17.1733333,17.7527467 17.1733333,17.5466667 L17.1733333,16.0533333 C17.1733333,13.7886933 15.33056,11.9466667 13.0666667,11.9466667 L11.5733333,11.9466667 C11.3672533,11.9466667 11.2,11.7794133 11.2,11.5733333 C11.2,11.3672533 11.3672533,11.2 11.5733333,11.2 L13.0666667,11.2 C15.74272,11.2 17.92,13.37728 17.92,16.0533333 L17.92,17.5466667 C17.92,17.7527467 17.7527467,17.92 17.5466667,17.92 Z" id="Path"></path>
                <path d="M14.1866667,14.1866667 C14.1008,14.1866667 14.0141867,14.1568 13.944,14.09632 L11.3306667,11.85632 C11.24704,11.7861333 11.2,11.6823467 11.2,11.5733333 C11.2,11.46432 11.24704,11.3605333 11.3306667,11.2903467 L13.944,9.05034667 C14.1000533,8.91669333 14.3345067,8.93386667 14.4704,9.09066667 C14.6048,9.24672 14.5861333,9.48266667 14.4293333,9.61706667 L12.14752,11.5733333 L14.43008,13.5303467 C14.58688,13.6647467 14.6048,13.8999467 14.4711467,14.0567467 C14.3957333,14.1426133 14.2919467,14.1866667 14.1866667,14.1866667 L14.1866667,14.1866667 Z" id="Path"></path>
            </g>
        </g>
    </g>
</svg>