<?xml version="1.0" encoding="UTF-8"?>
<svg width="21px" height="18px" viewBox="0 0 21 18" version="1.1" xmlns="http://www.w3.org/2000/svg" xmlns:xlink="http://www.w3.org/1999/xlink">
    <title>EEE4267D-7E8E-4F6F-91C1-6BDA735222EB</title>
    <g id="01.-PDP" stroke="none" stroke-width="1" fill="none" fill-rule="evenodd">
        <g id="D_01_PDP_02_Fragrances_Pink-Tag" transform="translate(-1281.000000, -409.000000)" fill="#363139">
            <g id="Description" transform="translate(861.000000, 264.000000)">
                <g id="Icon/Share" transform="translate(420.000000, 145.000000)">
                    <path d="M4.66477612,12.4280458 C3.3189403,12.9962487 2.30073134,13.7827108 1.46041791,14.9030727 L0.959865672,15.5704722 L1.0171791,14.7404116 C1.36329851,9.72831546 3.19016418,6.62193227 11.2164179,6.62193227 C11.4756269,6.62193227 11.6865672,6.41260606 11.6865672,6.15528148 L11.6865672,1.53259432 L19.8365373,8.99962915 L11.6865672,16.466664 L11.6865672,11.8439768 C11.6865672,11.5866522 11.4756269,11.377326 11.2164179,11.377326 C8.48247761,11.377326 6.33944776,11.7210477 4.66477612,12.4280458 M11.0279104,17.9603909 C11.1993582,18.0353217 11.3982537,18.0021673 11.5349552,17.8759494 L20.8490597,9.3423286 C20.9451045,9.25468714 21,9.12989138 21,8.99962915 C21,8.86936691 20.9451493,8.74470449 20.8495075,8.65759634 L11.5356269,0.124108912 C11.3985224,-0.00202013033 11.1991791,-0.0351745578 11.0275075,0.0392229108 C10.8567761,0.113487051 10.7462687,0.281303563 10.7462687,0.466586148 L10.7462687,5.69103061 L10.5060896,5.69689708 C8.13277612,5.75538398 6.24447761,6.10261661 4.73341791,6.7585054 C3.3729403,7.3489742 2.35177612,8.17885707 1.61158209,9.29553019 C0.274029851,11.3132838 0,14.0477241 0,17.5326721 C0,17.7498648 0.14919403,17.9368362 0.362776119,17.9873233 C0.397119403,17.9951453 0.433880597,17.9993229 0.470149254,17.9993229 C0.646970149,17.9993229 0.812014925,17.8982153 0.890552239,17.7417317 C1.54714925,16.4383538 2.22586567,15.090933 3.60438806,14.0835006 C5.14885075,12.954739 7.33808955,12.394047 10.4940896,12.3190718 L10.7462687,12.313072 L10.7462687,17.5326721 C10.7462687,17.7179547 10.8568209,17.8858601 11.0279104,17.9603909" id="Share"></path>
                </g>
            </g>
        </g>
    </g>
</svg>