<?xml version="1.0" encoding="UTF-8"?>
<svg width="40px" height="40px" viewBox="0 0 40 40" version="1.1" xmlns="http://www.w3.org/2000/svg" xmlns:xlink="http://www.w3.org/1999/xlink">
    <title>F6ABDA0B-5892-430A-9357-857FC9DF830D</title>
    <g id="13.-My-Account" stroke="none" stroke-width="1" fill="none" fill-rule="evenodd">
        <g id="D_13_My-Account_00---Sign-In-/-Register_active" transform="translate(-738.000000, -620.000000)">
            <g id="tracking" transform="translate(738.000000, 620.000000)">
                <g id="Group-24" fill="#BFCEA5">
                    <circle id="Oval-Copy-7" cx="20" cy="20" r="20"></circle>
                </g>
                <g id="pin-(2)" transform="translate(13.000000, 10.000000)" fill="#363139" fill-rule="nonzero">
                    <path d="M7.072,0 C3.172416,0 0,3.17103729 0,7.06892655 C0,8.35214463 0.575744,9.73224859 0.599872,9.79046328 C0.785824,10.2316475 1.152736,10.9169175 1.417312,11.3185989 L6.266208,18.6623819 C6.46464,18.963435 6.758336,19.136 7.072,19.136 C7.385664,19.136 7.67936,18.963435 7.877792,18.6627977 L12.727104,11.3185989 C12.992096,10.9169175 13.358592,10.2316475 13.544544,9.79046328 C13.568672,9.73266441 14.144,8.35256045 14.144,7.06892655 C14.144,3.17103729 10.971584,0 7.072,0 Z M12.77744,9.46311875 C12.611456,9.85833248 12.26992,10.495412 12.032384,10.8553017 L7.183072,18.1952227 C7.087392,18.3402591 7.057024,18.3402591 6.961344,18.1952227 L2.112032,10.8553017 C1.874496,10.495412 1.53296,9.85791691 1.366976,9.46270318 C1.359904,9.44566452 0.832,8.17607678 0.832,7.06565503 C0.832,3.62841765 3.631264,0.832 7.072,0.832 C10.512736,0.832 13.312,3.62841765 13.312,7.06565503 C13.312,8.17773909 12.782848,9.45065144 12.77744,9.46311875 Z" id="Shape"></path>
                    <path d="M7.072,3.328 C5.007392,3.328 3.328,5.007808 3.328,7.072 C3.328,9.136192 5.007392,10.816 7.072,10.816 C9.136608,10.816 10.816,9.136192 10.816,7.072 C10.816,5.007808 9.136608,3.328 7.072,3.328 Z M7.072,9.984 C5.466656,9.984 4.16,8.67776 4.16,7.072 C4.16,5.46624 5.466656,4.16 7.072,4.16 C8.677344,4.16 9.984,5.46624 9.984,7.072 C9.984,8.67776 8.677344,9.984 7.072,9.984 Z" id="Shape"></path>
                </g>
            </g>
        </g>
    </g>
</svg>