<?xml version="1.0" encoding="UTF-8"?>
<svg width="18px" height="14px" viewBox="0 0 18 14" version="1.1" xmlns="http://www.w3.org/2000/svg" xmlns:xlink="http://www.w3.org/1999/xlink">
    <title>7BB399A6-C9E6-4BA2-8034-9C9899B0C00D</title>
    <g id="02.PLP" stroke="none" stroke-width="1" fill="none" fill-rule="evenodd">
        <g id="D_01_PLP_02_Fragrances_Pink-Tag" transform="translate(-87.000000, -116.000000)" fill="#363139" fill-rule="nonzero">
            <g id="Desktop-Menu/-Closed" transform="translate(0.000000, 84.000000)">
                <g id="Language" transform="translate(87.000000, 29.000000)">
                    <g id="Icon/Uk" transform="translate(0.000000, 3.000000)">
                        <path d="M17.2726562,0 L17.3380597,0.00671839982 C17.4862828,0.0375363811 17.6000352,0.170604509 17.6000352,0.32734375 L17.6000352,0.32734375 L17.6000352,12.9835937 L17.5933936,13.0489047 C17.5629066,13.1969694 17.4310356,13.3109375 17.2722695,13.3109375 L17.2722695,13.3109375 L0.327765625,13.3109375 L0.261776597,13.3041843 C0.112531294,13.2732157 -1.42108547e-14,13.1395913 -1.42108547e-14,12.9835937 L-1.42108547e-14,12.9835937 L-1.42108547e-14,0.32734375 L0.00676274284,0.261548431 C0.0377728772,0.112676512 0.171550493,0 0.32734375,0 L0.32734375,0 L17.2726562,0 Z M10.1820312,8.10053757 L10.1820312,12.65625 L16.2866989,12.65625 L10.1820312,8.10053757 Z M9.52734375,0.6546875 L8.07265625,0.6546875 L8.07265625,5.60078125 L8.0660054,5.6667497 C8.03548012,5.81591016 7.90349275,5.928125 7.7453125,5.928125 L7.7453125,5.928125 L0.6546875,5.928125 L0.6546875,7.3828125 L7.7453125,7.3828125 L7.81128095,7.38946335 C7.96044141,7.41998863 8.07265625,7.551976 8.07265625,7.71015625 L8.07265625,7.71015625 L8.07265625,12.65625 L9.52734375,12.65625 L9.52734375,7.71015625 L9.5339946,7.6441878 C9.56451988,7.49502734 9.69650725,7.3828125 9.8546875,7.3828125 L9.8546875,7.3828125 L16.9453125,7.3828125 L16.9453125,5.928125 L9.8546875,5.928125 L9.78871905,5.92147415 C9.63955859,5.89094887 9.52734375,5.7589615 9.52734375,5.60078125 L9.52734375,5.60078125 L9.52734375,0.6546875 Z M7.41796875,8.10053757 L1.31330114,12.65625 L7.41796875,12.65625 L7.41796875,8.10053757 Z M16.9453125,8.0375 L11.1922105,8.0375 L16.9453125,12.330878 L16.9453125,8.0375 Z M6.40778952,8.0375 L0.6546875,8.0375 L0.6546875,12.330878 L6.40778952,8.0375 Z M0.6546875,0.980059487 L0.6546875,5.2734375 L6.40778952,5.2734375 L0.6546875,0.980059487 Z M16.9453125,0.980059487 L11.1922105,5.2734375 L16.9453125,5.2734375 L16.9453125,0.980059487 Z M7.41796875,0.6546875 L1.31330114,0.6546875 L7.41796875,5.21039993 L7.41796875,0.6546875 Z M16.2866989,0.6546875 L10.1820312,0.6546875 L10.1820312,5.21039993 L16.2866989,0.6546875 Z" id="Combined-Shape"></path>
                    </g>
                </g>
            </g>
        </g>
    </g>
</svg>