<?xml version="1.0" encoding="UTF-8"?>
<svg width="40px" height="40px" viewBox="0 0 40 40" version="1.1" xmlns="http://www.w3.org/2000/svg" xmlns:xlink="http://www.w3.org/1999/xlink">
    <title>E4B96355-3691-42C8-B190-743262EE025A</title>
    <g id="13.-My-Account" stroke="none" stroke-width="1" fill="none" fill-rule="evenodd">
        <g id="D_13_My-Account_00---Sign-In-/-Register_active" transform="translate(-738.000000, -490.000000)">
            <g id="Wishlist-USP" transform="translate(738.000000, 490.000000)">
                <g id="Group-5" fill="#FEEBDD">
                    <circle id="Oval-Copy-6" cx="20" cy="20" r="20"></circle>
                </g>
                <g id="Wishlist-Inactive" transform="translate(9.067935, 11.000000)" fill="#363139">
                    <path d="M10.5398231,16.9760195 L10.499413,17 L10.4593248,16.9754735 C9.5662757,16.429255 7.26225097,14.9525416 5.16027719,13.0418268 C2.39974614,10.5324808 1,8.22665426 1,6.18843531 C1,3.33311449 3.22630353,1.01011102 5.96276557,1.01011102 C6.78481506,0.998519727 7.6042886,1.20846485 8.32957903,1.61634382 C9.05414498,2.02380282 9.67160783,2.62138416 10.1154357,3.34466379 C10.1901784,3.45112725 10.3000587,3.52117896 10.4250324,3.54196768 C10.5509319,3.5627984 10.6768314,3.53142633 10.7799096,3.45339512 C10.8207223,3.42244301 10.8564233,3.3852333 10.8859259,3.3427739 C11.6091637,2.18847472 12.7232613,1.39489141 14.0207342,1.11153479 C15.3181267,0.828136181 16.6437338,1.08902417 17.753243,1.84602773 C19.1628904,2.80781072 20.0027703,4.43113713 20,6.18851931 C20,8.25172673 18.6002872,10.5680106 15.8397159,13.0729889 C13.5443448,15.1558091 11.0221292,16.689681 10.5398231,16.9760195 M19.4599022,10.4315472 C20.4818256,8.9299131 21,7.48550094 21,6.13846725 C21,2.75390184 18.3446001,0.000421369398 15.0807355,0.000421369398 L15.0802885,0.000421369398 C15.0697234,0.000337095518 15.0591178,0.000337095518 15.0485527,0.000337095518 C13.3139364,0.000337095518 11.6802974,0.788045048 10.5621509,2.16486956 L10.4995327,2.24193802 L10.4374834,2.16449032 C9.33282766,0.786317433 7.71491431,0 5.98976585,0 C5.96648213,0 5.94348286,0 5.92015851,0.000421369398 C2.65531861,0.000421369398 0,2.75390184 0,6.13846725 C0,7.46645505 0.518133743,8.89898459 1.54001652,10.3963207 C2.36664932,11.6074628 3.5229925,12.8635228 4.97698525,14.1296536 C7.59223799,16.4069445 10.2447528,17.9112754 10.2703527,17.9254334 L10.2772606,17.9297314 C10.4125337,18.0234439 10.587385,18.0234018 10.7227394,17.9297314 L10.7296067,17.9254334 C10.7558567,17.9108962 13.4266165,16.4110318 16.0231367,14.1607085 C17.4771294,12.9006455 18.6333913,11.6459338 19.4599022,10.4315472" id="Fill-1"></path>
                </g>
            </g>
        </g>
    </g>
</svg>